<svg class="svg-icon svg-icon--size-sm" role="img" xmlns="http://www.w3.org/2000/svg" viewBox="0 0 311.72 280.52"><path d="M286.43,79.73c9.23,14.81,12.77,30.38,12.88,46.3,.11,15.89-3.44,31.44-11.82,45.48,.46,.3,.91,.61,1.37,.91,3.98-4.97,8.49-9.62,11.78-15.01,3.27-5.35,5.33-11.45,8.21-17.87,5.2,16.66,3.07,32.08-4.32,46.89-7.34,14.69-18.77,25.81-32.36,34.89,.26,.48,.52,.97,.79,1.45,4.45-2.06,9.08-3.81,13.31-6.25,4.35-2.51,8.31-5.68,13.28-9.14-3.95,14.62-11.09,26.2-21.77,35.82-10.54,9.49-22.69,15.6-36.76,18.05,.05,.55,.11,1.11,.16,1.66,7.09,.61,14.18,1.21,21.27,1.82,.19,.41,.38,.83,.57,1.24-5.66,3.07-11.13,6.58-17.01,9.13-23.39,10.14-49.26,6.05-66.56-11.87-16.24-16.82-19.82-36.47-9.59-57.4,7.84-16.05,21.01-27.11,35.11-37.28,14.88-10.73,30.44-20.67,44.47-32.41,15.65-13.1,27.11-29.85,35.02-48.81,.81-1.94,1.08-4.11,1.96-7.57Z" fill="currentColor"></path><path d="M2.41,139.48c3.89,12.74,10.17,23.78,20.52,32.37-15-30.56-15-60.72,1.28-90.71,3.99,13.45,11.57,24.75,19.62,35.74,13.29,18.13,30.99,31.23,49.67,43.19,14.3,9.15,28.15,18.87,39.01,32.2,8.93,10.96,14.94,23.15,14.2,37.64-.9,17.67-9.7,30.96-24.09,40.76-24,16.36-55.21,10.32-74.57-5.88,7.4-.66,14.48-1.28,21.56-1.91,.08-.57,.16-1.14,.24-1.71-13.99-2.4-26.01-8.47-36.46-17.9-10.6-9.57-17.68-21.11-21.24-35.17,8.1,6.09,16.27,11.88,26.58,13.89C10.69,201.34-6.62,176.15,2.41,139.48Z" fill="currentColor"></path><path d="M233.65,79.46c.98,42.64-34.3,78.93-79.15,79.34-43.75,.4-79.33-34.05-80.18-77.49C73.41,34.6,109.4,2.79,149.13,.18c48.2-3.18,86.1,37.2,84.53,79.28Zm-83.09,69.08c1.38-.43,4.81-.41,6.01-2.04,6.37-8.65,15.14-17.01,6.98-29.23-.72-1.08-1.5-2.3-1.7-3.54-.71-4.54-3.89-6.13-7.79-7.08-3.2-.78-6.59-1.2-9.54-2.56-7.91-3.64-13.95-1.1-19.33,4.87-1.09,1.21-2.52,2.23-3.97,2.98-3.96,2.05-5.11,5.16-4.57,9.47,.57,4.6,.45,9.3,1.02,13.9,.19,1.55,1.21,3.64,2.48,4.33,9.08,4.96,18.82,7.92,30.41,8.9ZM112.01,26.09c.5,6.97,.77,12.61,1.4,18.22,.16,1.42,1.11,3.18,2.26,4,4.72,3.36,9.58,6.54,14.56,9.51,1.19,.71,3.19,.82,4.53,.37,6.07-2.05,12.1-4.26,18.01-6.75,1.8-.76,3.98-2.3,4.57-3.97,1.75-4.95,3.08-10.11,3.97-15.29,.38-2.2-.08-5.09-1.3-6.9-2.87-4.25-6.3-8.14-9.76-11.95-1.08-1.19-3.04-2.51-4.43-2.35-11.48,1.34-22.1,5.23-31.53,11.99-1.26,.91-1.94,2.63-2.28,3.1Zm79.78,46.07c2.74,0,4.26-.16,5.73,.03,5.56,.73,9.52-1.06,12.13-6.34,1.81-3.67,4.69-6.82,6.63-10.44,.8-1.49,1.23-4.14,.44-5.37-4-6.23-8.55-12.1-12.74-18.21-6.22-9.07-13.67-9.41-22.86-4.43-4.81,2.6-9.27,3.98-10.65,10.6-3.76,18.1-5.82,11.57,5.61,26.41,4.54,5.89,9.03,10.09,15.7,7.74Zm6.01,10.42c-10.93-2.65-17.67,2.46-22.05,11.91-.69,1.48-1.75,2.8-2.71,4.14-2.44,3.41-3.41,6.42-1.7,11.06,3.64,9.84,6.95,19.19,19.75,19.34,.16,0,.35,.02,.48,.1,6.38,3.55,10.97,.84,14.8-4.29,2.67-3.57,5.48-7.08,7.77-10.89,7.68-12.76,7.29-13.41-1.99-24.93-3.93-4.87-7.5-8.93-14.35-6.44Zm-70.75,.08c2.81-9.96-1.31-16.43-10.23-21.69-6.54-3.85-12.08-5.98-19-1.75-2.49,1.52-5.64,1.93-8.22,3.34-1.59,.87-3.76,2.64-3.79,4.05-.18,8.88,.2,17.78,.33,26.67,.11,7.54,5.2,9.32,11.37,11.03,8.33,2.32,15.04,2.73,22.3-4.01,5.6-5.2,9.83-9.46,7.23-17.63Z" fill="currentColor"></path></svg>