<svg width="13" height="13" class="svg-icon svg-icon--size-sm" role="img" xmlns="http://www.w3.org/2000/svg" viewBox="0 0 328.62 287.58"><path d="M1.65,168.57c6.44,0,12.4-.1,18.35,.02,14.25,.28,25.7-6.37,36.68-14.43,12.4-9.1,24.79-18.19,39.62-23.25,11.5-3.92,23.02-4.86,34.42-.52,10.83,4.13,17.4,12.28,19.58,23.8,.3,1.59,.77,3.14,2.27,4.96,1.1-3.44,2.87-6.82,3.2-10.34,1.17-12.72,.62-25.18-7.49-36.08-7.84-10.54-18.17-16.03-31.31-16.51-21.33-.78-37.52,10-52.59,23.23-8.25,7.25-15.83,15.31-24.46,22.06-10.11,7.91-21.96,10.52-34.72,7.73-1.56-.34-3.06-.97-5.2-1.67,7.14-8.8,13.93-17.08,20.62-25.45,12.67-15.82,25.25-31.69,37.92-47.5,3.53-4.41,7.33-8.61,10.8-13.06,.91-1.17,1.89-3.25,1.45-4.35-3.57-8.76-7.49-17.38-12.35-25.89-1.16,7.89-2.65,15.75-3.41,23.67-.87,9.16-8.35,13.7-12.35,20.64-.47-.19-.93-.38-1.4-.57,3.22-24.53,6.45-49.06,9.8-74.61,7.27,5.59,13.73,10.45,20.07,15.45,13.17,10.4,26.19,20.98,39.51,31.18,1.48,1.13,4.72,.81,6.82,.15,23.17-7.35,46.72-9.46,70.67-5.1,7.92,1.44,15.62,4.03,23.51,5.64,2.07,.42,5-.25,6.66-1.54,16.7-12.91,33.22-26.04,49.78-39.13,2.57-2.03,5.08-4.13,8.72-7.11,3.42,25.77,6.69,50.36,10,75.35-16.32-11.06-14.12-28.8-17.55-45.76-3.41,7.51-5.79,14.27-9.38,20.31-4.25,7.14-1.54,11.57,3.17,17.23,17.43,20.94,34.21,42.42,51.27,63.67,4.35,5.42,8.83,10.73,14.26,17.32-5.97,.8-10.93,2.18-15.83,1.99-11.82-.47-21.89-5.28-30.75-13.26-11.59-10.43-23.1-21.09-35.63-30.3-11.92-8.76-26.21-12.43-40.97-10.09-14.14,2.24-24.4,10.71-30.13,24.03-5.16,11.98-4.07,24.26-1.01,36.52,.17,.69,.96,1.22,1.79,2.21,1.4-4.46,2.28-8.61,3.97-12.4,4.83-10.82,13.4-16.75,25.09-18.59,19.65-3.1,35.84,5.34,51.47,15.37,7.8,5,15.1,10.77,22.76,16.01,10.96,7.5,23.24,9.98,36.34,9.02,3.31-.24,6.63-.33,11.46-.56-1.76,1.86-2.58,2.86-3.54,3.72-31.23,27.77-62.5,55.49-93.7,83.29-10.51,9.37-20.33,19.47-33.48,25.51-28.65,13.16-62.63,7.38-85.85-13.99-22.04-20.28-44.86-39.71-67.26-59.6-13.69-12.16-27.24-24.49-40.83-36.77-.32-.29-.44-.81-.88-1.65Zm233.92,45.97c-8.89-2.21-16.96-4.42-25.11-6.21-11.87-2.6-23.06-5.85-28.96-18.19-2.38-4.98-7.16-7.72-12.61-8.85-10.24-2.12-18.74,1.85-24.49,11.84-3.8,6.6-9.21,10.67-16.52,12.45-6.23,1.52-12.43,3.14-18.64,4.73-5.34,1.37-10.67,2.75-16.94,4.37,13.36,13.75,25.63,27.08,38.72,39.56,6.83,6.51,15.61,10.3,26.35,11.16-5.51-8.2-10.58-15.75-16.04-23.87h45.41c-5.42,8.13-10.39,15.59-16.01,24.03,13.9-2.04,23.88-7.99,32.31-16.93,10.5-11.12,21.11-22.13,32.54-34.1Zm-43.81-34.35c13.28-4.54,25.84-8.83,39.08-13.36-16.45-12.54-35.65-2.79-39.08,13.36Zm-93.93-13.11c12.95,4.37,25.59,8.64,38.8,13.1-5.44-19.25-25.97-24.82-38.8-13.1Z" fill="currentColor"></path></svg>