<svg width="13" height="13" class="svg-icon svg-icon--size-sm" role="img" xmlns="http://www.w3.org/2000/svg" viewBox="0 0 279.83 249.02"><path d="M214.38,187.02v-32.89c-10.22,2.96-19.96,5.75-29.68,8.59-3.47,1.01-6.99,1.94-10.36,3.24-4.68,1.81-8.61-.42-12.82-1.75-7.48-2.37-15.06-4.45-22.63-7.69,9.63-2.84,19.24-5.72,28.89-8.51,14.54-4.2,29.08-8.38,43.64-12.49,3.43-.97,3.39-3.48,3.38-6.27-.02-8.27,.03-8.27,8.07-8.28q10.9-.02,10.9,11.12c0,31,0,62,0,92.99,0,1.46,0,2.92,0,4.28,9.09,1.55,9.15,1.55,9.05,10.9-.11,9.94,1.39,8.66-8.77,8.72-9.15,.05-18.31,.01-27.92,.01v-18.37c.26-.16,.53-.45,.81-.47q7.83-.52,7.83-8.27c0-2.17,0-4.33,0-6.5,0-8.65,.02-8.71-8.08-11.06-27.66-8.02-55.33-16.03-83.01-23.99-18.65-5.36-37.33-10.62-56.88-16.17,0,6.73-.1,13.14,.15,19.53,.02,.62,2.38,1.86,3.36,1.62,5.28-1.28,10.42-3.15,15.71-4.37,3.12-.72,6.66-1.49,9.63-.74,9.4,2.37,18.62,5.45,28.09,9.16-5.08,1.52-10.15,3.09-15.25,4.54-12.34,3.5-24.7,6.96-37.06,10.41-3.21,.9-5.1,2.36-4.73,6.28,.44,4.62,.46,9.36,.01,13.98-.44,4.6,1.26,6.09,5.58,5.45,.93-.14,1.92,.12,3.17,.21v18.38H38.79v-18.35c2.97-.19,5.71-.36,8.98-.57,0-2.04,0-3.83,0-5.61,0-32.66,.08-65.33-.09-97.99-.02-4.22,1.22-5.3,5.35-5.22,13.83,.28,13.83,.12,13.82,13.77-.01,10.42,.05,10.2,11.22,13.32,17.92,5.01,35.75,10.38,53.63,15.52,23.88,6.87,47.77,13.68,71.66,20.51,3.46,.99,6.94,1.9,11.03,3.02Z" fill="currentColor"></path><path d="M213.81,111.98c4.07-7.24,7.47-13.36,10.93-19.45,9.28-16.33,18.75-32.55,27.78-49.02,2.61-4.76,5.38-7.46,11.17-6.62,3.91,.57,7.98,.23,11.96,.07,2.89-.12,4.18,.7,4.17,3.89-.1,22.46-.01,44.93-.17,67.39,0,1.25-1.64,3.58-2.53,3.59-20.61,.21-41.22,.16-63.32,.16Z" fill="currentColor"></path><path d="M0,112V37.39H65.32c-3.33,5.95-6.22,11.21-9.19,16.43-10.39,18.21-20.86,36.37-31.14,54.63-1.5,2.67-3.15,3.75-6.23,3.62-6.1-.25-12.23-.07-18.75-.07Z" fill="currentColor"></path><path d="M182.2,37c-4.18,7.51-7.73,13.98-11.37,20.41-9.62,16.97-19.23,33.96-29.01,50.84-.93,1.61-3.03,3.55-4.64,3.59-12.31,.3-24.64,.16-38,.16,2.07-3.86,3.72-7.13,5.55-10.32,11.27-19.67,22.69-39.25,33.78-59.03,2.32-4.13,4.83-5.95,9.72-5.77,10.8,.39,21.62,.12,33.96,.12Z" fill="currentColor"></path><path d="M240.48,37c-1.16,2.38-1.71,3.68-2.4,4.89-12.69,22.28-25.37,44.58-38.19,66.78-.84,1.45-2.8,3.15-4.28,3.17-11.99,.24-23.98,.12-35.98,.07-.45,0-.9-.31-1.88-.67,3.13-5.51,6.16-10.88,9.22-16.23,10.02-17.49,20.15-34.92,30.01-52.49,2.29-4.09,4.94-5.83,9.8-5.65,10.79,.4,21.6,.12,33.7,.12Z" fill="currentColor"></path><path d="M40.6,111.72c8.74-15.32,16.98-29.77,25.21-44.22,4.72-8.3,9.51-16.56,14.1-24.93,2.08-3.8,4.47-5.9,9.32-5.71,11.08,.43,22.18,.14,34.16,.14-.95,2.08-1.43,3.41-2.12,4.62-12.61,22.13-25.28,44.23-37.81,66.4-1.67,2.95-3.6,4.16-7.1,4.07-10.15-.26-20.31-.08-30.47-.1-1.45,0-2.89-.14-5.29-.27Z" fill="currentColor"></path><path d="M43.65,13.55C43.64,5.6,49.35-.04,57.38,0c7.78,.04,14.58,6.71,14.37,14.11-.21,7.37-7.12,13.92-14.66,13.89-7.8-.03-13.44-6.09-13.45-14.45Z" fill="currentColor"></path><path d="M224.52,0c7.62,.08,13.75,6.42,13.66,14.11-.09,7.63-6.73,13.99-14.5,13.89-6.98-.09-13.89-7.17-13.92-14.25-.02-7.36,6.92-13.83,14.75-13.74Z" fill="currentColor"></path></svg>