<svg width="13" height="13" class="svg-icon svg-icon--size-sm" role="img" xmlns="http://www.w3.org/2000/svg" viewBox="0 0 319.35 278.93"><path d="M123.86,183.38c-2.35-5.4-4.87-10.73-6.94-16.23-.64-1.7-.69-4.23,.12-5.79,15.41-29.59,57.06-40.12,85.15-18.89,2.36,1.78,4.37,4.03,7.16,6.64-.2-1.47-.2-2.18-.4-2.82-4.45-14.28-9.14-28.48-13.34-42.83-4.39-14.99-7.48-30.43-12.83-45.06-2.49-6.79-8.86-12.22-13.78-18.01-.71-.83-3.5-.86-4.68-.16-9.5,5.65-19.64,7.71-30.71,8.14-6.55,.26-13.12,3.77-19.37,6.51-4.13,1.81-7.52,3.12-11.3-.48-3.8-3.62-2.91-7.34-.94-11.3,.22-.43,.34-.91,.65-1.72-1.01-.49-1.98-1-2.97-1.44-5.71-2.58-7.02-5.21-5.13-11.42,2.15-7.07,4.53-14.07,6.89-21.07C103.2,2.23,106.92-.18,112.43,.01c19.79,.69,39.6,1.11,59.37,2.22,3.81,.21,7.8,2.61,11.15,4.83,29.61,19.55,57.95,40.77,81.77,67.26,11.85,13.18,22.67,27.34,33.22,41.59,7.32,9.89,8.71,22.27,11.64,33.94,2.84,11.32,5.82,22.61,9.15,33.79,1.65,5.53,.09,11.65-5.79,14.11-10.76,4.49-21.79,8.37-32.84,12.1-11.38,3.84-22.78,7.78-34.42,10.66-19.96,4.94-40.11,9.13-60.2,13.56-19.3,4.26-38.91,4.31-58.53,3.89-3.21-.07-5.22,.9-6.99,3.55-7.84,11.7-15.86,23.27-23.75,34.93-1.66,2.46-2.91,3.72-5.69,.92C61.03,247.68,31.45,218.11,1.86,188.55c-1.83-1.82-2.67-2.91-.85-5.73,11.26-17.52,27.56-27.15,47.16-33.13,28.43-8.66,58.95,8.59,70.37,28.52,1.19,2.08,2.67,4,4.02,5.99,.43-.27,.87-.55,1.3-.82Zm87.56,4.23c-6.58,8.64-14.27,14.71-23.77,17.54-9.26,2.75-18.89,4.29-27.24,6.11,16.55,6.44,47.32-3.87,51.02-23.65Z" fill="currentColor"></path></svg>