<svg width="13" height="13"  class="svg-icon svg-icon--size-sm" role="img" xmlns="http://www.w3.org/2000/svg" viewBox="0 0 347.41 238.71"><path d="M161.41,127.32c-1.08-49.25,41.45-96.33,98.9-93.18,44.89,2.46,88.59,41.12,87.06,96.54-1.37,49.41-40.9,89.9-92.41,90.38-53.73,.5-94.13-44.06-93.56-93.74Zm50,56.84c0,1,.15,2.02-.02,2.99-1.41,7.57,2.33,11.57,9.01,14.26,10.83,4.37,21.78,7.85,33.62,6.83,1.51-.13,3.42-1.19,4.28-2.42,3.76-5.42,7.38-10.96,10.65-16.68,.9-1.57,1.05-4.15,.46-5.9-2.21-6.54-4.71-13.01-7.48-19.33-.67-1.54-2.62-2.95-4.29-3.53-3.38-1.19-7.24-1.22-10.44-2.72-10.73-5.05-19.44-3-27.94,5.24-5.05,4.89-10.22,8.77-7.9,16.8,.4,1.38,.06,2.98,.06,4.47Zm-6.03-116.83c.41,6.26,.43,11.79,1.27,17.18,.38,2.44,1.88,5.32,3.8,6.78,4.98,3.79,10.39,7.06,15.84,10.18,1.56,.89,4.03,1.27,5.69,.71,7.49-2.51,14.89-5.29,22.19-8.31,1.56-.65,3.16-2.5,3.69-4.13,2.05-6.25,3.82-12.59,5.35-18.99,.42-1.76,.27-4.29-.74-5.63-4.35-5.85-9.03-11.48-13.8-16.99-.89-1.03-2.92-1.89-4.2-1.65-12.2,2.29-23.86,6.04-34.39,12.92-3.34,2.19-5.89,4.32-4.7,7.94Zm88.26,51.96c6.79-.39,12.61-.56,18.38-1.18,1.5-.16,3.27-1.46,4.18-2.75,3.8-5.4,7.45-10.91,10.84-16.57,.87-1.46,1.34-3.95,.71-5.41-5.42-12.39-13.68-22.66-24.54-30.7-1.38-1.02-4.07-1.19-5.8-.64-5.94,1.88-11.85,4.01-17.52,6.59-1.92,.87-3.8,3.12-4.49,5.15-2.19,6.38-3.97,12.93-5.55,19.49-.36,1.48,.29,3.64,1.25,4.91,4.2,5.56,8.87,10.77,13.01,16.37,2.74,3.71,5.74,5.98,9.54,4.74Zm-120.23,7.66c0,2.17-.34,4.4,.06,6.49,1.25,6.48,1.53,13.63,4.69,19.06,1.77,3.04,8.5,3.2,13,4.65,.16,.05,.35,.01,.49,.08,7.76,3.69,14.03,2.56,20.81-3.5,7.1-6.35,14.73-11.36,10.98-22.57-.25-.75-.15-1.68-.01-2.49,1.8-10.57-2.64-17.01-11.96-22.34-7.65-4.37-14.14-8.25-22.39-2.41-.48,.34-1.3,.18-1.92,.36-11.07,3.35-13.69,6.91-13.75,18.66,0,1.33,0,2.67,0,4Zm140.25,3.18c-3.81,.46-6.51,1.31-9.07,1.01-11.22-1.3-18.66,2.61-24.36,12.97-4.65,8.44-9.93,15.57-2.89,24.87,.26,.34-.01,1.04,.19,1.46,2.67,5.76,3.8,12.65,12.13,13.7,4.85,.61,9.52,2.6,14.37,3.42,1.94,.33,4.72-.18,6.1-1.43,9.77-8.82,16.65-19.67,20.77-32.15,.54-1.64-.27-4.28-1.37-5.79-3.81-5.22-7.95-10.2-12.13-15.13-1.18-1.39-2.92-2.3-3.72-2.91Z" fill="currentColor"></path><path d="M35.01,170.39c1.72-1.11,3.52-1.71,4.36-2.96,.86-1.29,1.62-3.68,1-4.78-6.84-12.08-13.95-24-21-35.96-1.26-2.14-2.74-4.18-3.83-6.41-2.01-4.09-.89-7.58,2.88-9.74,3.87-2.22,7.17-1.45,9.74,2.67,8.43,13.46,16.74,26.98,25.1,40.48,.86,1.39,1.77,2.75,2.7,4.18,4.53-1.06,6.09-2.71,4.26-7.59-7.01-18.8-13.49-37.79-20.2-56.7-1.82-5.12-.47-8.52,4.3-10.54,4.08-1.73,7.41-.08,9.44,5.24,7.28,19.09,14.42,38.24,21.6,57.37,.29,.77,.3,1.8,.82,2.3,.94,.89,2.19,1.47,3.3,2.17,.38-1.24,1.31-2.61,1.06-3.7-3.48-14.93-7.14-29.83-10.71-44.74-.84-3.52-1.39-7.53,2.55-9.13,2.53-1.03,6.69-1.21,8.62,.23,2.3,1.72,3.45,5.47,4.29,8.55,4.41,16.37,8.45,32.84,12.85,49.22,1.75,6.52,5.18,12.33,10.66,16.34,2.6,1.9,6.16,2.81,9.42,3.33,1.28,.2,3.73-1.57,4.28-2.98,3.86-9.8,7.48-19.69,10.93-29.64,2-5.78,8.02-9.64,13.08-7.92,6.17,2.1,8.81,7.53,6.43,13.95-8.19,22.08-16.13,44.27-24.88,66.13-7.3,18.23-25.02,30.7-47.44,28.73-18-1.58-28.94-11.98-38.17-25.98-12.85-19.48-26.12-38.68-39.21-58-2.5-3.7-3.61-7.66-.78-11.53,2.8-3.83,7.96-3.94,11.15-.08,5.29,6.38,10.17,13.1,15.24,19.66,1.92,2.49,3.89,4.94,6.16,7.82Z" fill="currentColor"></path><path d="M28.55,31.37C60.12,9.48,94.92-2.48,133.62,.43c27.18,2.04,51.64,12.56,74.18,28.1-6.7,4.06-12.88,7.97-19.26,11.52-1.05,.59-3.18,.03-4.45-.67-14.38-7.91-29.29-14.54-45.27-18.48-20.03-4.94-40.21-6.19-60.73-3.08-17.07,2.59-33.55,6.91-49.54,13.55Z" fill="currentColor"></path><path d="M0,67.12c13.65-9.87,28.44-17.43,44.23-22.78,17.82-6.03,36.19-8.96,55.1-8.15,18.56,.8,36.13,5.32,52.89,13.19,4.79,2.25,9.45,4.79,14.19,7.16,2.86,1.43,3.95,2.78,1.58,6.03-2.6,3.56-4.82,7.65-6.1,11.85-1.28,4.19-2.85,3.18-5.6,1.83-10.34-5.06-20.49-10.7-31.25-14.69-22.14-8.21-45.12-11.1-68.76-8.59-19.46,2.07-38.18,6.74-56.28,14.15Z" fill="currentColor"></path></svg>