<svg  width="13" height="13" class="svg-icon svg-icon--size-sm" role="img" xmlns="http://www.w3.org/2000/svg" viewBox="0 0 300.21 287.74"><path d="M216.57,217.9c-16.88,28.02-39.56,47.77-68.07,60.81-7.16,3.28-14.68,5.81-22.1,8.5-1.45,.53-3.38,.73-4.79,.24-19.09-6.62-37.47-14.65-53.58-27.17-15.13-11.77-27.47-26-37.25-42.41-14.29-23.98-22.61-49.98-26.87-77.56C.71,119.67-.61,99,.26,78.24c.49-11.72,2.43-23.39,4.04-35.03,.17-1.22,2.35-2.58,3.86-3.13,25.9-9.23,51.85-18.34,77.78-27.49,11.48-4.05,22.91-8.26,34.45-12.13,2.02-.68,4.69-.58,6.72,.13,28.26,9.89,56.47,19.97,84.69,29.97,8.86,3.14,17.71,6.29,26.63,9.24,3.97,1.31,5.59,3.42,5.83,7.89,.68,12.75,1.94,25.47,3.31,38.17,.38,3.51-.43,5.01-3.88,6.1-7.04,2.21-13.89,5.02-21.28,7.76-.33-1.07-.86-2.07-.9-3.09-.51-10.78-.78-21.58-1.58-32.34-.12-1.64-2.32-3.91-4.05-4.54-23.96-8.75-48.01-17.26-72.04-25.84-1.86-.66-3.93-1.04-5.53-2.1-12.4-8.21-23.95-1.75-35.45,2.19-23.06,7.92-45.93,16.39-68.98,24.33-4.17,1.44-6.27,3.6-6.58,7.85-.34,4.79-1.24,9.59-1.11,14.36,.47,16.77,.11,33.68,2.21,50.26,4.09,32.34,14.22,62.74,34.94,88.64,14.74,18.43,33.63,31.4,55.63,39.65,3.17,1.19,7.66,.63,10.97-.62,23.7-8.94,43.01-23.81,58.18-44.11,.91-1.22,2.99-2.68,4.18-2.42,7.99,1.71,15.9,3.85,24.28,5.97Z" fill="currentColor"></path><path d="M122.79,47.5c.16,1.08,.51,2.3,.51,3.53,.29,42.12,.59,84.23,.78,126.35,.09,19.31-.05,38.63-.1,57.94-.01,4.72-1.38,5.44-5.77,3.41-29.49-13.65-48.83-36.34-60.46-66.42-7.59-19.63-11.77-39.82-12.74-60.73-.5-10.79-.71-21.61-.54-32.4,.03-2.07,1.98-5.31,3.79-5.97,24.27-8.86,48.68-17.35,73.06-25.91,.27-.09,.62,.08,1.48,.21Z" fill="currentColor"></path><path d="M142.1,152.8c12.02,3.31,23.26,6.34,34.47,9.5,18.2,5.13,36.38,10.35,54.58,15.5,10.75,3.05,21.59,5.81,32.23,9.19,3.79,1.2,5.4,.42,6.76-3.05,1.79-4.57,4-8.97,6.72-14.97,8.09,17.41,15.57,33.49,23.34,50.21-17.43,5.12-34.5,10.13-53.06,15.58,3.08-6.92,5.51-12.36,8.22-18.46-4.64-1.45-9.06-3.02-13.57-4.21-20.2-5.36-40.42-10.66-60.66-15.89-11.3-2.92-22.64-5.69-33.97-8.48-3.33-.82-5.38-2.05-5.2-6.28,.4-9.4,.12-18.83,.12-28.62Z" fill="currentColor"></path><path d="M143.22,139.7c45.33-16.21,89.82-32.13,134.32-48.04,.2,.35,.39,.7,.59,1.04-2.61,1.83-5.25,3.63-7.84,5.49-25.02,17.97-50.07,35.9-75.01,53.99-2.75,1.99-5.17,2.27-8.26,1.36-13.89-4.08-27.82-8.02-41.73-12.05-.43-.12-.74-.62-2.07-1.8Z" fill="currentColor"></path></svg>