<svg width="13" height="13"  class="svg-icon svg-icon--size-sm" role="img" xmlns="http://www.w3.org/2000/svg" viewBox="0 0 359.25 305.37"><path d="M151.18,250.1c0-14.32,.41-28.66-.08-42.97-1.12-32.66-15.1-58.13-43.56-74.94-3.73-2.2-4-3.58-1.52-7.12,7.16-10.23,17.08-16.88,27.77-22.65,2.43-1.31,4.53-1.13,6.68,1.43,7.14,8.53,14.75,16.68,21.92,25.19,2.33,2.76,3.67,2.43,5.78-.05,7.21-8.45,14.67-16.68,21.8-25.19,2.31-2.75,4.25-2.58,7.16-1.13,22.86,11.4,36.28,29.82,41.02,54.74,2.57,13.47,.67,26.72-2.31,39.87-5.73,25.23-18.9,46.22-36.18,65.19-13.39,14.7-28.14,27.58-44.72,38.48-.96,.63-1.75,1.73-3.02,1.19-1.49-.64-.69-2.04-.69-3.08-.04-16.32-.03-32.65-.03-48.97Z" fill="currentColor"></path><path d="M136.07,256.31c0,15.32,0,30.64-.01,45.96,0,1.07,.69,2.49-.86,3-1.32,.43-2.08-.72-2.88-1.53C88.92,260.26,45.54,216.74,2.06,173.31c-2.42-2.42-2.77-3.87-.74-6.91,7.69-11.5,18.15-19.42,30.44-25.34,2.2-1.06,3.2-.59,4.58,1,7.61,8.8,15.38,17.48,22.92,26.34,2.03,2.39,3.24,2.58,5.37,.08,7.32-8.59,14.89-16.97,22.27-25.51,2.11-2.44,3.69-2.95,7.03-1.29,22.42,11.12,35.31,29.5,40.97,53.27,1.32,5.57,.95,11.58,1,17.39,.12,14.66,.04,29.31,.04,43.97,.05,0,.09,0,.14,0Z" fill="currentColor"></path><path d="M245,100.95c-.28-31.72,25.1-55.85,55.02-56.75,35.27-1.06,57.91,27.67,59.17,54.63,1.53,32.54-26.27,61.74-61.12,59.58-26.83-1.66-54.39-26.25-53.07-57.46Z" fill="currentColor"></path><path d="M27.22,75.25c-.31-11.16,2.07-21.23,11-28.95,5.8-5.01,12.12-7.94,19.99-8.17,8.61-.25,16.6,.78,24.12,5.39,9.08,5.57,13.67,14.35,14.54,24.01,1.57,17.4-3.25,33.52-16.11,46.01-13.07,12.69-28.13,11.64-39.96-2.38-8.69-10.29-14.27-21.97-13.59-35.91Z" fill="currentColor"></path><path d="M130.19,36.17c.43-9.01,1.69-19.36,10.61-27.05,11.25-9.69,24.09-11.25,37.51-6.58,11.83,4.11,19.27,12.77,20.91,25.58,2.54,19.81-2.87,37.01-17.96,50.39-10.22,9.06-24.14,8.08-33.87-1.55-11.69-11.58-17.21-24.1-17.2-40.78Z" fill="currentColor"></path><path d="M234.4,265.18c5.67-7.25,10.86-13.56,14.89-20.73,9.19-16.37,14.51-34.06,17.62-52.4,1.44-8.46,1.63-17.15,2.12-25.75,.18-3.1,.81-4.02,3.67-2.16,4.59,2.99,9.83,4.61,15.03,5.87,3.04,.74,3.17,1.43,2.54,4.17-4.22,18.3-11.32,35.38-21.03,51.44-8.37,13.83-18.64,26.08-30.39,37.14-.96,.9-1.81,1.93-4.44,2.42Z" fill="currentColor"></path><path d="M283.83,227.78c8.47-12.96,14.67-25.81,18.42-39.77,1.09-4.07,2.54-8.05,3.01-12.29,.39-3.48,2.01-5.22,6-5.68,6.85-.78,13.26-3.41,18.98-7.44,.74-.52,1.5-1.59,2.49-.57,.6,.63,.3,1.39-.11,2.23-11.64,23.67-27.66,44.09-46.34,62.54-.3,.3-.85,.35-2.45,.98Z" fill="currentColor"></path></svg>