<svg  width="13" height="13" class="svg-icon svg-icon--size-sm" role="img" xmlns="http://www.w3.org/2000/svg" viewBox="0 0 280.19 280"><path d="M39.87,130.07c6.95-8.01,13.98-15.96,20.84-24.05,22.04-26.01,43.54-52.5,66.18-77.98C143.24,9.65,164.65,.55,189.4,.02c26.51-.56,49.33,8.76,67.01,28.25,21.78,24,28.81,52.34,20.24,83.97-5.95,21.95-19.75,38.09-37.78,51.38-18.73,13.8-36.94,28.3-55.38,42.48-1.25,.96-2.56,1.83-3.22,3.28,5.7-6.36,11.13-12.99,17.15-19.03,15.41-15.45,31.13-30.6,46.57-46.02,1.11-1.11,1.66-3.5,1.4-5.14-.9-5.85-2.05-11.69-3.56-17.42-.52-1.98-1.99-4.32-3.71-5.27-5.48-3.02-11.21-5.63-17-8-1.56-.64-3.98-.43-5.53,.35-6.78,3.42-13.49,7.02-19.97,10.96-1.68,1.02-3.12,3.39-3.54,5.37-1.04,5-1.38,10.15-2.11,15.22-.55,3.84,.07,7.01,3.35,9.69,4,3.25,7.64,6.94,11.36,10.53,.91,.88,1.98,2.02,2.15,3.17,.46,3.22-8.06,12.54-11.5,12.69-22.4,.97-42.42-5.43-59.91-19.54-16.21-13.08-26.35-30-30.65-50.25-1.4-6.58-1.63-13.48-1.66-20.24,0-1.78,2.44-4,4.27-5.28,7.67-5.36,7.74-5.24,14.36,1,1.69,1.6,3.6,2.98,5.15,4.7,3.67,4.05,7.23,7.36,13.56,5.3,5.14-1.67,10.68-2.06,15.95-3.4,1.34-.34,2.7-1.93,3.38-3.29,3.23-6.49,6.43-13.02,9.18-19.72,.74-1.8,.54-4.56-.32-6.36-2.63-5.5-5.62-10.85-8.86-16.01-.97-1.54-3.1-2.86-4.92-3.24-3.71-.79-7.77-.24-11.32-1.39-5.9-1.91-9.69,.52-13.59,4.4-22.1,21.96-44.33,43.78-66.49,65.68-6.52,6.44-12.94,12.97-19.44,19.43-1.01,1-2.15,1.86-3.24,2.79-.31-.33-.62-.65-.93-.98ZM193.06,10.74c-.1,.42-.19,.85-.29,1.27q-12.47,0-18.05,11.16c-.15,.3-.31,.59-.51,.86-5.12,6.96-6.24,13.87,.2,20.74,.43,.46,.6,1.17,.86,1.78,2.97,7,6.54,13.15,15.82,11.61,.75-.12,1.59,.41,2.4,.6,9.76,2.29,18.96,3.14,24.98-7.52,1.42-2.52,4.35-4.14,6.13-6.51,1.01-1.35,1.63-3.45,1.46-5.11-.52-5.09-1.37-10.15-2.35-15.17-.65-3.32-.84-7.19-5.2-8.16-8.47-1.89-16.96-3.7-25.45-5.54Zm74.9,75.67c0-10.98-1.85-20.38-5.92-28.61-.91-1.85-2.9-4.07-4.72-4.41-6.48-1.24-13.09-1.9-19.67-2.39-1.53-.11-3.53,.97-4.71,2.12-4.73,4.66-9.28,9.52-13.74,14.44-.77,.85-1.32,2.44-1.13,3.55,1.26,7.46,2.56,14.93,4.3,22.3,.41,1.76,2.29,3.44,3.9,4.59,1.83,1.31,4.12,1.96,6.18,2.97,13.35,6.57,13.23,6.33,26.38-.33,6.67-3.38,11.67-7.01,9.15-14.21Zm-86.9,34.4c-.49-.82-1.05-2.4-2.12-3.47-3.06-3.04-6.71-5.56-9.43-8.86-5.37-6.53-11.4-10.01-19.89-6.43-.14,.06-.33,.01-.49,.04q-12.93,1.88-18.79,13.79c-1.45,2.96-3.02,5.92-3.95,9.06-.49,1.65-.35,4.07,.56,5.46,6.83,10.43,15.74,18.74,26.74,24.68,1.2,.65,3.28,.72,4.48,.11,5.73-2.91,11.34-6.06,16.87-9.35,1.25-.75,2.57-2.29,2.82-3.66,1.22-6.82,2.1-13.7,3.22-21.37Z" fill="currentColor"></path><path d="M7.24,171.46c6.21,3.77,9.59,8.96,10.49,15.23,1.22,8.51,1.5,17.16,2.16,25.75,.13,1.74,.16,3.49,1.43,5.76,4.85-5.97,9.83-11.84,14.52-17.94,13.45-17.51,26.77-35.12,40.17-52.67,2.86-3.74,7.34-4.81,10.38-2.62,3.59,2.59,4.15,6.46,1.15,10.87-7.64,11.23-15.44,22.36-23.15,33.54-3.54,5.14-3.41,5.61,2.6,9.86,7.76-7.35,15.59-14.76,23.42-22.17,5.93-5.61,11.8-11.29,17.83-16.79,3.41-3.11,7.42-3.02,10.21-.14,2.59,2.66,2.43,7.15-.53,10.36-12.41,13.47-24.72,27.04-37.38,40.27-3.57,3.73-3.92,6.53,.37,10.19,4.12-2.67,8.45-5.33,12.63-8.2,10.22-7.02,20.36-14.15,30.56-21.21,3.84-2.66,8.76-2.09,11.15,1.2,2.37,3.26,1.5,7.58-2.29,10.46-14.02,10.64-28.12,21.16-42.04,31.91-1.33,1.02-2.67,3.63-2.26,4.97,.89,2.94,3.2,1.47,5.3,.72,8.22-2.92,16.49-5.69,24.78-8.41,3.92-1.28,7.91,.52,8.93,4.13,1.1,3.89-.92,6.36-4.43,7.73-9.97,3.88-20,7.6-29.9,11.66-2.29,.94-4.67,2.57-6.11,4.54-7.07,9.64-16.24,16.15-27.85,18.69-4.94,1.08-10.2,.79-15.32,.84-1.11,0-2.43-1.03-3.32-1.91-12.99-12.93-25.96-25.86-38.79-38.95-1.2-1.23-2.11-3.54-1.93-5.22,2.24-20.57,4.71-41.11,7.22-62.47Z" fill="currentColor"></path></svg>