<svg width="13" height="13"  class="svg-icon svg-icon--size-sm" role="img" xmlns="http://www.w3.org/2000/svg" viewBox="0 0 243.47 278.23"><path d="M.33,90.82c7.58,0,14.86,0,22.15,0,11.17,0,22.34,.17,33.5-.09,4.03-.09,5.2,1.26,5.18,5.14-.13,20-.06,40-.06,60.01,0,26.14,14.65,47.97,39.12,57.25,35.1,13.31,72.96-7.9,80.83-44.29,.76-3.53,1.01-7.24,1.03-10.87,.09-20.67,.16-41.34-.05-62.01-.04-4.25,1.29-5.28,5.38-5.23,17,.22,34,.2,50.99,0,3.81-.05,4.83,1.15,4.8,4.82-.14,21.83,.86,43.72-.26,65.5-2.39,46.16-24.41,80.57-64.92,102.93-20.91,11.54-43.57,15.81-67.12,13.75-25.35-2.22-48-11.8-67.65-28.22C21.7,231.51,8.69,208.34,2.39,181.33c-1.68-7.19-2.13-14.79-2.23-22.21-.28-21.17-.1-42.34-.09-63.51,0-1.45,.15-2.9,.26-4.79Z" fill="currentColor"></path><path d="M114.44,133.14c3.36-16.84,6.72-33.69,10.19-51.1h-50.63C91.96,54.12,109.36,27.06,126.76,0c.32,.11,.65,.21,.97,.32-.6,3.24-1.13,6.49-1.81,9.71-2.47,11.62-4.94,23.24-7.51,34.84-.57,2.57,0,3.76,2.83,3.74,14.32-.11,28.65-.15,42.97-.17,1.21,0,2.42,.36,3.63,.55-.36,1.19-.47,2.54-1.11,3.55-15.34,24.18-30.74,48.31-46.13,72.46-1.82,2.85-3.62,5.7-5.43,8.56l-.73-.42Z" fill="currentColor"></path><path d="M213.12,34.78c8.67,0,17.33,.1,26-.05,3.05-.05,4.1,.99,4.06,4.04-.14,9.33-.14,18.67,0,28,.05,3.05-1.08,4.14-4.08,4.12-17.66-.08-35.33-.09-52.99-.02-3.05,.01-4.08-1.15-4.04-4.15,.13-9.33,.14-18.67,0-28-.05-3.09,1.03-4.02,4.06-3.97,9,.17,18,.06,27,.06v-.03Z" fill="currentColor"></path><path d="M.03,34.8c4.57,0,8.53,0,12.48,0,14.5,0,29,.1,43.49-.07,3.55-.04,5.22,.76,5.14,4.65-.19,9-.12,18-.03,27,.03,3.16-1.16,4.51-4.41,4.49-17.66-.08-35.33-.08-52.99-.01-2.46,0-3.73-.62-3.71-3.32,.07-10.65,.03-21.31,.03-32.75Z" fill="currentColor"></path></svg>