<svg class="svg-icon svg-icon--size-sm" role="img" xmlns="http://www.w3.org/2000/svg" viewBox="0 0 299.69 278.74"><path d="M113.3,11.81c20.19,55.24,61.54,88.17,113.7,112.07-53.69,22.48-92.11,58.26-113.69,112.27C90.69,183.09,54.87,144.89,0,123.79,51.98,100.23,92.88,67.49,113.3,11.81Z" fill="currentColor"></path><path d="M299.69,216.27c-29.45,12.8-50.67,32.33-62.96,62.47-12.91-29.1-32.19-50.72-61.31-61.51,11.93-8.41,24.57-16.33,36.04-25.66,11.71-9.53,19.57-22.31,25.15-37.98,11.49,31.2,34.56,49.24,63.08,62.68Z" fill="currentColor"></path><path d="M191.44,44.31c20.83-9.57,36.58-22.61,45.25-44.31,8.33,22.02,24.65,34.55,44.86,44.27-21.09,9.12-35.99,22.86-44.72,44.21-9.63-20.26-23.01-35.8-45.38-44.17Z" fill="currentColor"></path></svg>