<svg width="13" height="13"  class="svg-icon svg-icon--size-sm" role="img" xmlns="http://www.w3.org/2000/svg" viewBox="0 0 359.22 262.29"><path d="M0,125.64c15.38-16.27,30.31-32.38,45.73-48.03,2.3-2.34,6.79-3.05,10.39-3.48,12.18-1.43,24.43-2.27,36.62-3.58,7.01-.75,13.62-1.05,20.15,2.84,7.21,4.3,15.13,7.4,22.48,11.48,3.63,2.02,4.99,.76,6.23-2.41,2.04-5.21,3.89-10.53,6.44-15.47,1.06-2.05,3.5-4.08,5.72-4.71,9.96-2.85,19.98-5.67,30.15-7.5,4.42-.79,9.47,.2,13.92,1.48,20.09,5.77,40.07,11.94,60.09,17.96,2.52,.76,3.89,2.07,3.46,5.07-.68,4.73-.96,9.53-1.52,15.44-6.44-1.37-12.62-2.63-18.77-4.01-14.14-3.18-28.25-6.48-42.41-9.57-1.46-.32-3.34,.13-4.72,.82-5.6,2.83-11.05,5.98-16.64,8.84-2.69,1.38-3.17,2.84-2.2,5.88,5.07,15.83,9.71,31.79,14.77,47.62,.49,1.54,2.63,3.29,4.27,3.62,15.19,3.06,30.44,5.83,46.59,8.86-4.68,11.51-5.84,23.33-3.33,35.92-24.58-1.57-48.69-4.76-72.72-4.2-24.07,.57-48.05,4.88-73.14,7.67,7.68,5.98,14.63,11.21,21.38,16.7,7.43,6.04,15.76,11.09,20.64,19.91,4.66,8.42,6.1,17.36,5.55,26.77-.04,.76-.6,1.48-1.13,2.71-6.52-4.27-12.84-8.38-19.12-12.54-23.85-15.82-47.63-31.72-71.54-47.45-14.83-9.76-11.71-29.22-.35-35.14,5.39-2.81,11.84-3.87,17.95-4.98,11.2-2.04,22.51-3.53,33.77-5.26,6.04-.93,12.08-1.89,18.11-2.88,1.09-.18,2.15-.53,3.94-.99-1.27-2.4-2.25-4.4-3.37-6.32-7.29-12.59-14.66-25.12-21.86-37.77-1.58-2.77-3.41-3.96-6.7-4-8.64-.11-17.28-.82-25.92-.95-2.29-.03-5.06,.55-6.84,1.88-14.24,10.59-28.36,21.35-42.37,32.26-2.75,2.14-4.17,2.52-6.03-.9-2.13-3.9-4.89-7.45-7.67-11.59Z" fill="currentColor"></path><path d="M118.58,0c12.62,0,22.38,9.16,25.68,23.37,2.29,9.85,1.96,19.28-1.91,28.66-4.51,10.92-12.52,16.32-23.77,10.02-12.24-6.86-22.09-15.55-25.4-30.07C89.19,14.45,100.52,0,118.58,0Z" fill="currentColor"></path><path d="M316.35,179.57c.47,20.4-17.38,37.2-37.22,36.36-22.39-.95-35.77-17.65-35.64-36.53,.15-22.16,16.35-36.37,36.62-36.66,21.34-.32,37.2,18.32,36.24,36.84Zm-53.11,21.13c.18,6.7,5.44,10.41,14.69,10.37,2.72-.01,8.36-6.44,8.24-9.4-.23-5.85-7.58-11.84-14.22-11.59-4.45,.17-8.86,5.54-8.72,10.63Zm-14.99-21.92c0,9.72,2.74,13.18,10.49,13.25,3.67,.03,9.55-6.5,9.52-10.56-.06-6.73-4.73-12.68-9.97-12.72-5.94-.04-10.03,4.05-10.03,10.03Zm49.8-2.72c4.85,0,10.48-5.11,10.45-9.48-.03-4.03-7.72-12.78-11.25-12.8-5.61-.04-11.19,6.02-11.02,11.98,.13,4.6,6.68,10.3,11.83,10.31Zm4.97,4.1c-8.14,.2-15.95,6.62-15.72,11.44,.27,5.66,6.35,11.21,12.36,11.25,2.94,.02,11.58-10.23,10.28-13.52-1.49-3.77-4.99-6.73-6.91-9.17Zm-41.82-21.33c.2,5.08,5.29,10.86,9.46,10.73,6.74-.2,13.09-6.86,12.58-13.18-.25-3.12-5.71-8.42-8.61-8.37-7.94,.15-13.68,4.77-13.43,10.82Z" fill="currentColor"></path><path d="M323.82,171.98c12.29,2.3,23.84,4.45,35.39,6.61-2.01,12.67-25.76,26.06-38.79,20.76,1.13-4.4,2.71-8.74,3.27-13.21,.57-4.52,.13-9.16,.13-14.16Z" fill="currentColor"></path></svg>