<svg class="svg-icon svg-icon--size-sm" role="img" xmlns="http://www.w3.org/2000/svg" viewBox="0 0 300.39 294.59"><path d="M155.87,0c37,2.06,69.41,19.59,88.52,57.74,13.44,26.85,12.01,53.82-2.39,80.23-9.15,16.79-21.45,31.1-34.1,45.21-17,18.96-33.9,38.02-50.78,57.09-6.63,7.49-6.72,7.72-13.61,.5-21.82-22.91-43.99-45.51-65.06-69.1-12.45-13.94-22.52-29.8-27.43-48.33-10.19-38.41,1.01-73.32,31.76-99.45C102.4,7.22,125.63,.43,155.87,0Zm-45.94,98.6c-1.19,23.09,18.15,40.57,39.38,40.5,22.21-.07,39.63-16.3,40.11-39.45,.44-20.85-16.24-40.03-39.21-40.36-20.66-.3-40.99,15.52-40.29,39.31Z" fill="currentColor"></path><path d="M93.09,213.56c-12.98,2.42-24.85,3.9-36.29,7-8.12,2.19-16.2,5.69-23.3,10.19-7.12,4.52-7.62,11.14-1.21,16.67,6.13,5.28,13.42,9.96,21,12.65,21.92,7.79,44.75,11.87,68.04,12.24,22.44,.37,44.98,1.28,67.32-.31,23.17-1.65,46.37-5.28,67.56-15.89,5.13-2.57,9.69-6.83,13.61-11.14,3.87-4.25,3.52-8.39-.85-12.34-3.72-3.36-8.12-6.8-12.81-8.1-15.68-4.35-31.63-7.75-47.28-11.47,2.4-5.1,8.75-8.49,15.86-6.72,14.85,3.69,29.81,7.19,44.27,12.11,10.76,3.67,21.18,8.92,27.92,18.99,4.79,7.16,4.61,13.76-.55,20.67-5.74,7.68-13.7,12.36-22.21,16.25-16.94,7.74-34.88,11.89-53.14,15.04-20.17,3.47-40.43,5.33-60.91,5.05-12.96-.18-25.96,.58-38.86-.27-14.2-.93-28.36-2.95-42.47-4.97-16.38-2.35-32.42-6.43-47.57-13.03-8.23-3.59-16.37-8.2-23.22-13.94-11.12-9.32-10.4-21.59,.63-31.03,11.32-9.69,25-14.71,39-18.73,10.44-3,21.14-5.08,31.74-7.52,.9-.21,2.18-.47,2.79-.02,3.52,2.6,6.89,5.4,10.92,8.62Z" fill="currentColor"></path></svg>