<svg class="svg-icon svg-icon--size-sm" role="img" xmlns="http://www.w3.org/2000/svg" viewBox="0 0 300.5 230.19"><path d="M121.67,.55c-9.35,40.83-18.69,81.67-28.27,123.52-9.09-9.91-17.53-19.13-26.55-28.97-13.74,15.03-29.37,25.2-33.56,44.43-6.26,28.74,14.27,54.3,37.7,57.75,17.35,2.55,31.7-2.12,43.89-14.31,8.48-8.49,16.8-17.13,25.37-25.52,.83-.81,3.63-1.03,4.34-.34,6.14,6.03,12.01,12.33,18.67,19.29-15.21,14-29.38,28.88-45.45,41.32-14.6,11.31-32.46,14.22-50.98,11.56-29.36-4.22-49.61-20.62-60.82-47.43-9.67-23.14-7.49-46.19,5.17-68.07,8.58-14.83,21.92-25.36,33.64-37.32C68.27,52.55,92.07,28.97,115.71,5.25c1.69-1.7,3.29-3.5,4.93-5.25,.34,.18,.69,.37,1.03,.55Z" fill="currentColor"></path><path d="M142.78,140.22c7.84-7.55,14.52-13.77,20.96-20.23,12.47-12.51,24.88-25.08,37.1-37.84,1.49-1.56,2.34-4.37,2.36-6.62,.28-28.53,30.34-46.8,55.7-33.62,2.77,1.44,4.38,1.04,6.44-1.13,7.68-8.09,15.55-16.01,23.4-24.05,3.94,4.04,7.44,7.63,11.76,12.06-6.44,6.12-13.16,12.31-19.64,18.74-8.74,8.69-17.28,17.6-25.95,26.36-1.39,1.41-2.96,2.69-4.6,3.79-3.37,2.27-6.62,1.77-9.5-.98-2.95-2.82-3.31-6.28-1.11-9.49,2.21-3.23,5.09-6,7.73-9.04-7.48-3.06-16.44-.27-21.23,6.41-5.06,7.06-5.05,16.85,.03,22.64,6.35,7.25,13.16,9.57,20.64,7.03,8.61-2.94,12.94-8.84,13.67-18.61,.06-.81-.07-2.08,.38-2.36,5.04-3.16,10.16-6.21,15.35-9.11,.29-.16,1.95,1.15,2.16,1.98,5.09,19.49-5.08,40.37-25.88,46.71-4.19,1.28-8.82,1.01-13.14,1.96-2.08,.46-4.26,1.74-5.78,3.27-17.23,17.19-34.41,34.42-51.41,51.83-3.15,3.23-4.91,3.52-8.28,.13-9.84-9.9-20.14-19.36-31.16-29.86Z" fill="currentColor"></path></svg>