<svg  width="13" height="13"  class="svg-icon svg-icon--size-sm" role="img" xmlns="http://www.w3.org/2000/svg" viewBox="0 0 420.23 262.18"><path d="M173.17,106.83c-16.75,24.35-42.52,32.81-68.12,42.59-1.91-3.85-3.92-7.42-5.39-11.21-.39-1,.46-3.23,1.44-3.92,10.55-7.44,21.38-14.49,31.82-22.07,4.07-2.96,7.97-6.55,10.87-10.63,7.09-9.95,13.64-20.29,20.2-30.61,2.03-3.19,4.38-4.44,8.18-4.18,5.14,.35,10.35,.38,15.48-.06,3.66-.32,5.95,.91,7.98,3.76,5.25,7.37,10.66,14.61,16.42,22.46,5.89-7.85,11.48-14.98,16.69-22.38,2.09-2.97,4.33-4.02,7.91-3.77,4.97,.34,10.05,.51,14.97-.1,4.23-.52,6.5,1.23,8.56,4.39,6.68,10.26,13.61,20.37,20.13,30.73,5.12,8.13,13.62,11.92,20.93,17.24,7.1,5.16,14.33,10.16,21.68,14.97,2.37,1.55,2.85,2.98,1.48,5.27-.17,.28-.26,.61-.41,.91-4.94,9.67-4.9,9.6-14.92,5.27-8.17-3.53-16.55-6.61-24.61-10.37-4.73-2.2-9.43-4.83-13.42-8.14-7.02-5.82-13.48-12.31-20.76-19.06-1.05,2.22-1.91,4.39-3.05,6.4-5.29,9.34-5.09,19.11-2.11,28.98,.56,1.86,2.28,3.91,4.02,4.8,18.78,9.57,37.67,18.92,56.55,28.31,2.41,1.2,3.43,2.74,2.36,5.51-9.85,25.38-19.69,50.76-29.37,76.2-1.15,3.02-2.73,4.25-5.85,4.04-2.82-.19-5.69-.34-8.49-.04-3.79,.41-4.8-1.2-4.18-4.6,1.55-8.45,3.07-16.91,4.6-25.37,2.15-11.84,4.4-23.67,6.32-35.55,.18-1.12-1.46-3.36-2.68-3.75-13.78-4.4-27.65-8.52-41.47-12.76-3.16-.97-6.19-2.6-9.4-3.07-3.66-.53-7.7-.95-11.16,.05-16.6,4.8-33.05,10.11-49.56,15.2-3.29,1.01-4.16,2.72-3.48,6.31,3.15,16.52,5.91,33.11,8.85,49.67,.55,3.09,1.35,6.13,1.96,9.21,.65,3.28-.22,4.78-4.11,4.67-13.13-.37-13.09-.24-17.7-12.34-8.62-22.63-17.28-45.24-25.95-67.85-1.07-2.8-.53-4.42,2.39-5.85,18.68-9.17,37.22-18.61,55.9-27.76,3.02-1.48,4.54-3.41,5.18-6.59,2.7-13.36,1.47-20.77-6.68-34.91Z" fill="currentColor"></path><path d="M420.23,148.41c-25.32,19.78-49.83,38.93-74.35,58.08-.28-.2-.55-.4-.83-.59,3.17-7.5,6.31-15.02,9.51-22.51,4.47-10.45,8.77-20.98,13.57-31.28,2.67-5.72-1.54-9.54-3.22-13.81-6.06-15.31-12.78-30.35-19.25-45.5-.25-.58-.39-1.2,.15-2.55,24.62,19.24,49.23,38.48,74.42,58.17Z" fill="currentColor"></path><path d="M74.53,202.78C49.49,184.6,25.19,166.96,0,148.67c25.16-18.27,49.7-36.1,74.24-53.92,.25,.15,.49,.29,.74,.44-1.77,4.23-3.42,8.52-5.33,12.69-5.71,12.46-11.43,24.9-17.35,37.26-1.26,2.64-1.32,4.7-.05,7.37,7.32,15.3,14.44,30.7,21.57,46.09,.45,.96,.38,2.16,.7,4.19Z" fill="currentColor"></path><path d="M237.22,26.04c.12,11.89-4.47,21.76-13.68,29.05-8.47,6.7-15.21,6.84-23.76-.65-10.84-9.49-15.48-21.73-12.09-36.65,4.11-18.11,28.69-23.19,41.32-11.56,6.6,6.07,8.32,10.31,8.22,19.81Z" fill="currentColor"></path></svg>