<svg class="svg-icon svg-icon--size-sm" role="img" xmlns="http://www.w3.org/2000/svg" viewBox="0 0 357.52 279.11"><path d="M0,134.5c.63-3.69,.92-7.48,1.94-11.06,8.71-30.84,23.14-58.45,46.87-80.48C67.5,25.59,88.92,13,113.73,6.06,131.56,1.08,149.66-1.17,167.86,.6c41.64,4.06,76.6,21.95,104.43,53.42,18.94,21.42,31,46.36,37.15,74.08,3.83,17.27,3.97,34.96,3.31,52.59-.17,4.45,1.19,5.78,5.6,5.67,11.82-.31,23.66-.19,35.48-.21,.92,0,1.83,.24,3.69,.51-30.11,31.03-59.59,61.41-89.71,92.46-29.73-30.66-59.33-61.17-89.44-92.22,1.52-.32,2.51-.7,3.5-.7,12,0,23.99,.03,35.99,.11,2.71,.02,4.98-.06,4.95-3.8-.15-15.77,.9-31.65-3.09-47.12-9.56-37.02-30.98-64.9-66.55-79.5-44.5-18.28-85.17-9.4-120.35,22.78-14.1,12.9-23.91,29.22-29.13,47.95-.76,2.73-1.93,5.34-2.91,8.01-.26-.04-.52-.08-.78-.12Z" fill="currentColor"></path></svg>