<svg  width="13" height="13"  class="svg-icon svg-icon--size-sm" role="img" xmlns="http://www.w3.org/2000/svg" viewBox="0 0 297.83 367.45"><path d="M250.59,179.29c-5.25-9.85-10.43-19.6-15.64-29.33-7.65-14.27-15.34-28.52-22.92-42.82-.55-1.04-.82-2.77-.34-3.72,3.84-7.47,7.91-14.83,12.38-23.11,4.4,5.67,8.45,10.76,12.36,15.96,19.63,26.1,39.13,52.29,58.9,78.28,3.12,4.1,3.67,6.55-.33,10.72-17.41,18.14-34.35,36.73-51.46,55.16-3.96,4.27-8.75,8.07-11.61,12.98-2.62,4.5-3.42,10.15-4.57,15.39-3.35,15.3-6.48,30.65-9.67,45.99-.74,3.55-1.71,7.11-1.88,10.7-.23,4.99-3.33,7.69-6.85,10.29-13.98,10.37-27.93,20.78-42,31.03-.99,.72-3.15,.83-4.24,.24-19.22-10.37-38.08-21.46-57.64-31.13-8.41-4.15-8.25-11.25-9.7-17.96-3.46-15.97-6.33-32.07-9.42-48.12-.34-1.78-.69-3.57-.84-5.37-.57-7.03-4.96-11.49-9.9-15.91-22.06-19.76-43.93-39.72-65.91-59.58-2.22-2-4.61-3.82-7.02-5.59-2.67-1.97-3.23-3.6-.52-6.33,26.51-26.74,52.91-53.59,79.31-80.45,4.06-4.13,7.91-8.47,12.44-13.35,4.75,7.09,9.22,13.54,13.34,20.21,.53,.86-.47,3.12-1.33,4.3-17.25,23.57-34.59,47.07-51.9,70.59-.18,.24-.2,.61-.56,1.81,5.82,2.58,11.71,5.35,17.71,7.83,17.21,7.12,34.58,13.86,51.62,21.38,3.85,1.7,6.76,5.78,9.81,9.03,12.39,13.2,24.66,26.51,37.34,40.18,2.67-3.96,5.22-7.54,7.56-11.25,7.51-11.9,14.8-23.94,22.51-35.7,1.72-2.62,4.57-4.73,7.32-6.38,13.87-8.34,27.88-16.45,41.84-24.65,.54-.32,1.02-.76,1.81-1.35Z" fill="currentColor"></path><path d="M101.27,58.7C100.08,27.38,128.22-1.6,162.97,.07c30.34,1.45,56.04,26.06,56.09,59.01,.05,32.68-25.95,58.91-59.28,58.94-32.33,.03-59.28-26.42-58.5-59.32Zm54.9,52.67c.12-.45,.25-.9,.37-1.35,3.54,.86,5.14-1.16,7.27-3.65,5.74-6.72,6.87-13.32,2.44-21.24-1.65-2.95-3.08-5.15-6.45-5.92-3.2-.74-6.29-2.27-9.5-2.52-2.7-.21-5.67,.52-8.2,1.59-2.21,.94-4.1,2.79-5.88,4.51-1.48,1.42-3.64,3.22-3.66,4.87-.06,5.08,.74,10.16,1.29,15.24,.04,.33,.72,.7,1.17,.87,7.04,2.56,14.1,5.08,21.15,7.61Zm29.58-56.09c.24-.46,.49-.91,.73-1.37,7.89,.93,13.96-1.45,17.2-9.09,.25-.6,.64-1.19,1.09-1.65,2.62-2.7,2.32-5.62,.42-8.43-2.51-3.69-5.05-7.39-7.94-10.78-5.9-6.91-6.67-7-15.34-4.03-2.15,.74-4.33,1.43-6.42,2.32-.82,.35-1.82,1.07-2.08,1.85-2.9,8.57-6.4,17.27,3.33,24.13,.66,.46,1.01,1.36,1.66,1.84,2.41,1.78,4.9,3.47,7.35,5.2Zm-56.13-29.65c-.46,.05-.92,.1-1.38,.15,1.18,3.42,1.39,7.91,3.74,10.07,6.31,5.81,13.47,10.8,22.46,4.2,1.16-.85,2.9-.94,4.02-1.84,1.68-1.35,3.55-2.86,4.41-4.72,1.23-2.65,1.83-5.65,2.28-8.57,.29-1.86,.46-4.23-.43-5.7-7.39-12.23-10.66-13.18-23.99-7.58-1.36,.57-2.69,1.2-4.05,1.77-5.35,2.23-9.22,5.36-7.06,12.21Zm79.35,48.55c-2.13-2.71-4.36-5.94-7.01-8.77-1.7-1.82-3.9-4.12-6.09-4.38-9.09-1.08-17.11,.68-20.82,10.63-.57,1.52-1.8,2.78-2.61,4.22-.46,.83-1.08,1.85-.95,2.69,1.51,9.99,6.73,15.33,17.16,17.57,1.85,.4,4.48,1.26,5.58,.4,7.14-5.53,11.57-13.06,14.74-22.35Zm-99.91-14.95c1.13,16.91-.62,15.65,14.54,19.48,3.76,.95,5.79-.34,8.42-2.25,5.67-4.09,9.77-7.91,8.71-16.44-.84-6.83-2.17-11.7-8.51-14.62-1.33-.62-2.42-1.78-3.76-2.36-1.31-.57-2.84-1.11-4.21-.97-11.23,1.17-15.34,5.89-15.2,17.16Z" fill="currentColor"></path><path d="M158.64,127.61c18.2,.96,33.91,9.93,37.73,28.74,4.37,21.57-.2,41.29-16.95,56.77-8.27,7.64-18.69,8.34-27.77,1.6-12.67-9.41-23.4-20.56-27.64-36.52-4.43-16.68-1.14-35.16,16.14-44.27,5.7-3,12.31-4.27,18.5-6.33Z" fill="currentColor"></path></svg>