<svg  width="13" height="13"  class="svg-icon svg-icon--size-sm" role="img" xmlns="http://www.w3.org/2000/svg" viewBox="0 0 374.94 300.11"><path d="M114,255.77c8.05-16.41,15.73-32.26,23.64-48.01,1.93-3.85,1.9-4.92-3.01-5.87-17.64-3.41-35.1-7.74-52.68-11.49-25.65-5.48-51.34-10.76-77.03-16.1-1.64-.34-3.34-.4-4.92-1.71H260.91v27.64c21.46-17.03,41.88-33.24,63-50.01-20.84-16.55-41.28-32.78-62.4-49.56v28.04H2.02l-.14-1.57c45.7-9.63,91.39-19.26,138.02-29.09-8.85-17.74-17.31-34.71-26.24-52.61,5.93,.64,10.96,1.01,15.93,1.75,14.74,2.19,29.45,4.65,44.2,6.77,14.08,2.03,28.2,3.74,42.29,5.63,3.28,.44,2.97-1.03,2.41-3.5-4.15-18.29-8.14-36.63-12.43-56.09,36.77,14.25,68.16,35.35,96.61,61.19,28.52,25.91,50.35,57.25,72.27,88.77-27.4,41-56.97,80.13-97.11,109.92-21.8,16.18-44.8,30.22-71.72,40.23,2.13-9.39,4-17.51,5.81-25.65,2.22-9.98,4.34-19.97,6.62-29.94,.57-2.47,.07-3.56-2.59-3.16-18.63,2.83-37.25,5.68-55.89,8.47-14.37,2.15-28.76,4.23-43.15,6.3-.77,.11-1.61-.19-2.92-.37Z" fill="currentColor"></path></svg>