<svg  width="13" height="13"  class="svg-icon svg-icon--size-sm" role="img" xmlns="http://www.w3.org/2000/svg" viewBox="0 0 341.06 287.23"><path d="M31.05,73.02c5.63-.89,11.28-1.71,16.9-2.68,18.87-3.25,37.71-6.69,56.6-9.8,17.76-2.93,35.57-5.57,53.37-8.26,9.63-1.45,19.26-3.08,28.95-3.99,17.31-1.63,33.49,2.46,48.8,10.53,25.73,13.56,42.2,34.74,48.64,62.73,7.71,33.54,.02,63.54-24.38,88.79-14.46,14.97-31.94,24.45-52.14,27.5-12.13,1.83-24.81,.63-37.21,0-12.75-.65-25.44-2.3-38.17-3.46-12.09-1.1-24.18-2.15-36.27-3.18-11.42-.97-22.84-1.9-34.26-2.85-.77-.06-1.54-.25-2.41-1.45,1.63-.18,3.26-.5,4.89-.5,42.33,.01,84.66,.15,126.99,0,6.58-.02,13.19-1.13,19.72-2.17,1.47-.23,3.29-2.03,3.86-3.52,2.62-6.91,4.9-13.95,7.16-20.99,.29-.89,.09-2.28-.44-3.05-4.44-6.4-8.93-12.78-13.64-18.99-.85-1.12-2.76-1.96-4.21-2-8.32-.26-16.65-.43-24.96-.18-1.97,.06-4.37,1.38-5.73,2.88-3.34,3.67-5.76,8.25-9.33,11.64-6.61,6.26-3.7,12.7-.57,20.02-4.06,.86-7.5,1.75-11,2.29-6.37,.99-12.76,1.97-19.17,2.55-2.26,.21-5.34,.03-6.85-1.32-9.76-8.69-20.69-23.94-25.03-39.31,3.76,0,7.41-.32,10.95,.16,1.36,.19,3.17,2.01,3.57,3.43,2.74,9.68,9.05,13.1,18.65,11.47,1.46-.25,3.06-.33,4.48,0,7.92,1.88,12.75-2.06,16.7-8.29,2.39-3.77,5.55-7.06,7.89-10.85,1-1.62,1.49-4.19,.98-5.97-2.18-7.6-4.67-15.12-7.4-22.54-.62-1.7-2.35-3.57-4.01-4.22-6.41-2.52-12.96-4.74-19.57-6.72-1.69-.5-4.17-.29-5.6,.65-5.53,3.64-10.67,7.87-16.18,11.54-2.8,1.86-3.53,3.88-3.02,7.1,.46,2.88,.1,5.89,.1,9.39H.21c-.07-.18-.14-.36-.21-.54,3.98-.84,7.93-1.94,11.95-2.48,9.85-1.33,19.73-2.38,29.6-3.57,12.32-1.48,24.65-2.96,36.97-4.5,4.93-.61,9.9-1.11,14.71-2.23,1.16-.27,2.53-2.8,2.55-4.32,.24-16.78,5.05-32.18,13.08-46.8,2.31-4.21,5.14-5.65,9.64-4.67,4.1,.89,8.5,.67,9.59,6.56,.92,4.98,3.8,9.64,4.4,14.61,.69,5.77,4.47,7.2,8.75,8.65,4.98,1.7,9.92,3.56,15.01,4.84,2.05,.51,4.9,.36,6.59-.73,6.83-4.37,13.46-9.09,19.92-14,1.45-1.1,2.57-3.46,2.69-5.31,.42-6.47,.71-13.01,.25-19.46-.18-2.55-1.91-5.57-3.89-7.3-4.73-4.14-9.94-7.76-15.13-11.33-1.31-.9-3.92-1.69-4.89-1.02-13.86,9.53-29.8,6.63-44.92,7.23-26.95,1.07-53.95,.95-80.93,1.3-1.64,.02-3.28-.14-4.92-.22,0-.37,0-.73,0-1.1Zm167.64,21.97c-2.18,9.57,.51,16.85,9.68,21.35,2.05,1,3.97,2.51,5.55,4.17,5.62,5.94,11.82,7.25,19.44,3.87,7.59-3.36,17.38-3.24,19.35-14.37,.74-4.17,2.47-8.2,4-12.2,1.22-3.2,.63-5.77-1.82-8.03-5.14-4.72-9.88-10.01-15.53-14.01-5.45-3.86-11.59-7.91-17.91-8.93-3.63-.59-8.06,4.95-12.4,7.22-7.58,3.96-12.13,9.31-10.22,18.43,.16,.79-.08,1.66-.14,2.49Zm47.14,95.69c2.32,0,4.69-.28,6.97,.06,5.37,.81,8.73-1.49,11.23-6.07,5.94-10.88,9.44-22.48,10.56-34.77,.12-1.37-1.29-3.28-2.53-4.29-4.75-3.86-9.83-7.33-14.58-11.2-3.17-2.58-6.44-2.93-10.13-1.74-5.78,1.87-11.65,3.52-17.31,5.71-1.9,.73-3.9,2.52-4.76,4.34-1.74,3.69-2.48,7.84-4.1,11.6-3.88,8.97-4.07,16.47,3.02,24.93,6.14,7.34,10.88,14.14,21.64,11.43Z" fill="currentColor"></path><path d="M144.25,270.61c45.03,13.23,87.11,7.93,124.17-21.56,29.2-23.23,46.83-54,50.36-91.48,4.47-47.41-11.95-87.34-48.31-117.73C233.83,9.21,191.37,3.23,145.8,16.16c-.12-.46-.25-.92-.37-1.39,7.2-2.8,14.31-5.89,21.63-8.36C182.79,1.12,199.08-.91,215.58,.37c16.39,1.27,32.11,5.42,46.94,12.83,34.08,17.01,56.36,44.36,69.42,79.57,9.98,26.9,11.67,54.39,5.53,82.59-7.19,33.03-23.93,60.13-49.21,82.02-17.46,15.12-38.06,24.04-60.81,27.97-29.13,5.03-56.56-.25-82.63-13.68-.23-.12-.3-.55-.56-1.06Z" fill="currentColor"></path></svg>