<svg class="svg-icon svg-icon--size-sm" role="img" xmlns="http://www.w3.org/2000/svg" viewBox="0 0 328.08 263.93"><path d="M159.6,220.02c1.15-.59,2.37-1.07,3.43-1.8,13.67-9.42,24.17-21.62,31.26-36.62,1.83-3.88,3.61-5.53,8.45-5.34,14.63,.57,25.27-7.06,33.56-18.6-6.44,5.98-13.92,9.95-22.69,10.11-8.74,.17-16.62-3.08-22.77-9.36-8.56-8.74-11.13-22.88-5.81-31.3,5.24,1.91,10.58,3.85,17.43,6.35-1.6-6.27-2.48-11.73-4.39-16.8-9.9-26.38-28.53-43.54-55.96-50.03-28.52-6.74-58.01,3.34-73.98,28.27-11.23,17.53-11.11,35.92-2.85,54.45,11.28,25.29,31.4,39.92,58.17,44.3,13.6,2.22,27.82,1.68,40.71-5.28,.66-.36,1.52-.35,3.07,.42-2.47,2.7-4.7,5.68-7.45,8.05-14.58,12.55-31.23,20.24-50.68,21.36-45.64,2.62-78.18-17.99-98.74-57.54C-1.08,138.66-2.51,114.7,3.45,90.47c4.34-17.65,12.25-33.38,24.19-47.16C45.75,22.41,68.58,9.47,95.21,3.19c16.62-3.92,33.44-4.02,50.45-1.43,23.9,3.65,45.49,12.61,64.6,27.05,14.91,11.26,27.71,24.85,38.85,39.94,20.24,27.42,34.39,58.21,49.47,88.5,9.38,18.85,18.98,37.59,28.59,56.32,1.11,2.16,1.51,3.5-.57,5.5-14.64,14.1-29.19,28.29-43.56,42.67-2.71,2.71-4.36,2.87-7.43,.59-13.57-10.04-26.93-20.39-42.59-27.28-22.52-9.92-45.96-14.41-70.5-13.3-.59,.03-1.19-.19-1.78-.29-.38-.48-.75-.96-1.13-1.45Zm111.92-49.24c-5.03,5.45-4.5,16.4,.72,21.73,5.94,6.06,16.45,8.17,22.16,2.87-7.52-8.08-15.05-16.18-22.88-24.6Z" fill="currentColor"></path></svg>