<svg  width="13" height="13"  class="svg-icon svg-icon--size-sm" role="img" xmlns="http://www.w3.org/2000/svg" viewBox="0 0 260.27 224.37"><path d="M.1,0H260.18V5.17c0,64.51-.04,129.02,.09,193.53,0,4.62-.91,7.07-5.96,6.09-12.81-2.48-23.19,2.23-31.1,11.81-7.84,9.51-18.07,7.13-27.94,7.12-1.28,0-2.72-1.17-3.82-2.11-5.08-4.28-10.1-8.64-15.08-13.04-2.95-2.61-5.99-3.94-10.24-3.89-24.5,.27-49,.07-73.49,.23-2.26,.01-4.84,.92-6.71,2.23-4.21,2.95-8.87,5.8-11.91,9.78-7.58,9.95-18.11,7.39-27.54,6.44-4.46-.45-8.45-5.95-12.56-9.28-2.97-2.4-5.64-5.19-8.72-7.43-1.47-1.07-3.55-1.7-5.39-1.78-4.99-.23-10.01-.29-14.99,0-3.72,.22-4.89-.93-4.84-4.75,.21-15.83,.09-31.67,.09-47.51,0-49.51,0-99.02,0-148.53,0-1.29,0-2.58,0-4.09ZM240.57,185.86c.44-1.09,.67-1.39,.67-1.7,.03-53.84,.03-107.67,.13-161.51,0-3.55-1.57-3.96-4.59-3.95-70.66,.08-141.32,.07-211.98,.08-6.49,0-6.55-.01-6.55,6.48-.01,51.51,.07,103.01-.09,154.52-.01,4.7,1.03,6.22,5.99,6.21,70.49-.16,140.98-.11,211.48-.11h4.95Z" fill="currentColor"></path><path d="M232.14,83.91c0,11.61,.08,23.06-.17,34.5-.02,.83-2.54,2.38-3.78,2.27-4.37-.37-5.31,1.47-5.18,5.49,.29,8.66,.46,17.35-.05,25.99-.29,4.85,1.24,6.34,5.74,5.71,.92-.13,1.91,.18,3.43,.35,0,5.49,.18,10.78-.18,16.04-.06,.89-2.45,2.32-3.77,2.32-63.32,.09-126.64,.06-189.95,.04q-10.13,0-10.13-10.11c-.04-45.67-.09-91.33-.12-137,0-.32,.15-.64,.34-1.36H232.13c0,5.27,.12,10.7-.15,16.11-.03,.71-2.19,2.05-3.12,1.86-5.01-1.02-5.98,1.23-5.84,5.7,.28,8.82,.37,17.68-.04,26.49-.22,4.69,1.48,6,5.71,5.39,.94-.14,1.93,.1,3.45,.19Zm-99.82,13.9c-3.63,0-6.28-.19-8.9,.05-3.41,.31-5.32-.69-6.64-4.19-2.73-7.22-7.99-12.37-15.71-13.75-9.95-1.78-18.72,.45-24.93,9.37-4.91,7.05-5.4,17.25-.83,24.33,5.94,9.2,14.5,13.05,23.93,11.37,8.69-1.55,14.25-6.59,17.62-14.4,.96-2.21,1.6-3.97,4.76-3.88,9.66,.25,19.33,.04,28.99,.12,1.15,.01,2.94,.42,3.34,1.2,1.86,3.65,4.9,3.99,8.41,3.83,3.33-.15,6.67-.14,10-.01,13.43,.49,12.65-.88,12.55-13.18-.03-3.88-1.52-5.92-5.59-5.87-6.5,.08-13.01-.14-19.49,.13-1.73,.07-4.16,1.05-4.96,2.39-2.88,4.84-7.24,1.98-10.8,2.18-1.1,.06-3.16-3.33-3.52-5.36-4.26-23.92-31.79-43.15-58.63-34.32-26.27,8.64-37.75,33.52-31.12,57.14,7.52,26.81,34.65,40.07,60.65,30.76,13.83-4.95,22.83-15.12,27.99-28.96-7.59-2.06-8.22-1.43-12.1,4.17-2.97,4.29-6.44,8.63-10.64,11.6-13.14,9.3-26.98,9.78-40.92,1.4-12.25-7.37-20.2-23.2-17.52-37.08,5.61-29.13,36.88-41.41,60.07-24.07,8.01,5.99,12.37,14.32,14,25.03Z" fill="currentColor"></path></svg>