<svg  width="13" height="13"  class="svg-icon svg-icon--size-sm" role="img" xmlns="http://www.w3.org/2000/svg" viewBox="0 0 259.98 386.12"><path d="M129.11,0c13.72,17.09,25.6,33.83,32.99,53.34,4.02,10.61,8.45,21.12,11.49,32.01,2.4,8.6,3.38,17.67,4.27,26.6,4.89,49.16,.89,98.46,2.03,147.69,.05,2.31-1.11,5.24-2.72,6.9-11,11.36-22.27,22.47-33.46,33.65-.71,.71-1.36,1.53-2.19,2.04-3.44,2.09-6.57,.39-6.59-3.64-.05-11.5-.02-23-.02-34.5,0-17.5-.14-35,.07-52.49,.05-4.05-1.76-4.79-5.1-4.79-3.5,0-4.88,1.11-4.86,5,.18,28.66,.11,57.33,.01,85.99,0,1.62-.89,4.6-1.43,4.62-2.11,.06-4.9-.14-6.27-1.46-11.95-11.59-23.69-23.4-35.36-35.27-1.12-1.14-1.89-3.16-1.89-4.77-.1-46.5-.24-92.99,.1-139.49,.05-7.26,2.41-14.49,3.63-21.75,.81-4.81,1.02-9.77,2.32-14.43,2.27-8.11,4.71-16.22,7.93-23.99,4.25-10.24,8.68-20.52,14.2-30.1,6.06-10.5,13.46-20.23,20.86-31.16Zm25.7,88.31c-.21-10.16-2.3-19.15-7.93-26.96-8.13-11.26-15.56-13.54-25.64-8.15-9.07,4.84-17.43,21.27-14.85,33.46,16.45-14.51,32.46-13.62,48.43,1.65Z" fill="currentColor"></path><path d="M38.73,217.6c-.91,4.54-2.01,9.05-2.7,13.62-1.47,9.76-2.5,19.58-4.15,29.31-1.59,9.36-3.86,18.6-5.58,27.93-1.01,5.47-1.48,11.04-2.33,16.55-.79,5.15-1.76,10.27-3.55,15.57-.18-1.58-.52-3.17-.52-4.75,0-9.5-.09-19.01,.18-28.51,.1-3.58-1.04-4.7-4.55-4.51-4.95,.27-9.92,.07-15.2,.07-.12-1.95-.29-3.39-.29-4.84-.02-16.84-.11-33.68,.11-50.52,.03-2.15,1.2-4.69,2.65-6.37,8.88-10.32,18.01-20.43,27.03-30.63,5.38-6.08,10.68-12.24,16.08-18.3,7.49-8.4,15.05-16.75,23.27-25.9,.43,2.01,.82,3,.82,3.99,.02,42.52-.04,85.03,.09,127.55,.01,3.98-1.11,5.26-5.08,5.08-6.65-.3-13.34-.29-20,0-3.92,.17-5.17-1.01-5.11-5.05,.25-18.34,.19-36.68,.18-55.02,0-1.8-.39-3.61-.6-5.41-.25,.05-.51,.1-.76,.15Z" fill="currentColor"></path><path d="M259.29,282.88c-4.89,0-9.72,.21-14.52-.07-3.64-.21-4.99,.77-4.84,4.69,.34,8.99,.19,18,.2,27,0,1.7-.21,3.39-1.38,5.1-5.82-34.21-11.64-68.41-17.47-102.62-.28-.06-.56-.12-.84-.17-.18,1.58-.52,3.15-.52,4.73,0,18.84-.03,37.68,.18,56.52,.04,3.68-.95,5.03-4.76,4.88-7.16-.27-14.33-.15-21.5-.04-2.71,.04-3.87-.79-3.87-3.7,.06-43.51,.04-87.03,.05-130.54,0-.3,.23-.6,.84-2.11,4.06,4.39,7.87,8.31,11.46,12.41,6.45,7.37,12.69,14.93,19.17,22.27,8.58,9.72,17.3,19.3,25.97,28.94,3.55,3.95,7.19,7.82,10.66,11.84,.89,1.03,1.79,2.48,1.8,3.75,.09,18.5,.02,37.01-.02,55.51,0,.3-.22,.6-.62,1.62Z" fill="currentColor"></path><path d="M181.21,312.75c-1.31,13.74-5.83,25.36-15.14,35.14-10.31,10.84-20.49,21.8-30.72,32.71-1.73,1.84-3.45,3.68-5.18,5.52-1.73-1.75-3.5-3.46-5.19-5.25-11.43-12.08-23.36-23.73-34.11-36.38-9.42-11.07-12.24-24.78-10.66-39.13,.49-4.43,2.5-8.71,3.99-13,.26-.74,1.33-1.56,2.09-1.63,.5-.04,1.29,1.11,1.66,1.87,2.95,5.97,4.82,12.83,8.95,17.8,9.34,11.23,19.85,21.47,29.75,32.24,2.65,2.88,4.55,2.34,6.93-.23,10.29-11.11,21.01-21.84,30.83-33.33,3.59-4.2,5.12-10.16,7.62-15.3,.46-.95,1.08-1.82,1.62-2.73,.83,.81,2.12,1.49,2.4,2.46,1.84,6.39,3.46,12.83,5.15,19.26Z" fill="currentColor"></path></svg>