<svg  width="13" height="13"  class="svg-icon svg-icon--size-sm" role="img" xmlns="http://www.w3.org/2000/svg" viewBox="0 0 390.52 260.23"><path d="M301.27,257.42c-14.06,5.78-25.36,2.27-35.69-7.17-16.72-15.27-33.52-30.47-50.7-45.22-3.23-2.77-8.31-3.73-12.72-4.74-17.52-4.01-35.13-7.63-52.66-11.61-3.73-.85-6.42-.56-9.3,2.39-17.8,18.26-35.81,36.31-53.69,54.48-1.26,1.28-2.06,3.03-3.31,4.9C54.69,224.67,27.34,199.91,0,175.18c5.58-7.69,18.11-9.91,26.49-4.71,15.04,9.34,30.1,18.66,44.97,28.26,2.93,1.89,4.34,1.98,6.29-1.02,16.36-25.13,32.83-50.19,49.27-75.28,5.96-9.1,11.93-18.2,18.54-28.29-3.5,0-6.06-.11-8.6,.02-25.26,1.3-50.51,2.62-75.76,3.97-10.92,.59-10.92,.63-12.44-10.07-1.01-7.12-.95-6.75,6.71-8.06,12.69-2.16,25.27-4.93,37.93-7.3,19.32-3.61,38.67-7.05,57.99-10.66,12.48-2.34,24.97-4.69,37.37-7.41,3.22-.71,5.31-.42,7.33,2.21,8.49,11.06,17.18,21.96,25.52,33.13,.87,1.17,.61,4.23-.34,5.54-11.68,16.13-23.54,32.14-35.48,48.08-2.39,3.18-3.01,4.93,1.45,6.93,15.68,7.03,31.13,14.58,46.76,21.72,5.99,2.74,10.09,7.21,13.89,12.38,17.19,23.38,34.54,46.64,51.82,69.95,.55,.74,.9,1.62,1.57,2.84Z" fill="currentColor"></path><path d="M298.05,147.26c-18.08-.57-35.16-1.1-52.24-1.64,0-.47,0-.94-.01-1.41,14.79-1.37,29.58-2.75,43.98-4.09,2.11-7.33,3.69-14.4,6.28-21.07,1.26-3.24,2.54-8.22,8.06-6.85,1.61,.4,3.14,1.81,4.3,3.13,.8,.91,.94,2.44,1.29,3.71,1.89,6.94,7.22,11.92,14.07,11.91,2.45,0,4.79-2.66,7.36-3.59,8.74-3.14,7.92-10.55,7.58-17.4-.09-1.72-2.74-3.4-4.36-4.93-4.02-3.8-8.02-6.53-13.63-2.04-1.52,1.22-4.73,.44-7.16,.38-15.8-.39-31.61-.82-47.41-1.29-1.67-.05-3.33-.43-4.87-1.31,10.81-1.23,21.62-2.37,32.42-3.71,11.83-1.47,23.63-3.2,35.46-4.66,25.95-3.21,46.98,5.67,57.63,30.47,11.4,26.57-4.39,57.84-32.2,65.46-8.61,2.36-16.98,2.04-25.59,.94-14.3-1.83-28.63-3.43-42.95-5.16-1.43-.17-2.82-.57-4.2-2.01,1.35-.08,2.7-.29,4.04-.23,18.29,.73,36.58,1.61,54.88,2.21,8.6,.28,15.54-5.34,14.41-13.42-.63-4.54-5.36-9.26-9.44-12.28-2.61-1.94-7.42-1.22-11.23-1.11-1.69,.05-3.81,1.15-4.93,2.46-3.65,4.29-8.72,8.18-5.28,15.52-6.11,.55-11.35,1.11-16.61,1.41-1,.06-2.5-.64-3.01-1.46-3.75-5.95-7.33-12.01-10.89-18.08-.27-.45,.02-1.23,.05-1.91,3.74-1.03,6-.17,7.56,3.55,2.46,5.88,14.41,7.23,18.42,2.33,.11-.13,.17-.31,.3-.4,8.5-5.73,5.55-13.34,3.27-20.71-1.06-3.42-12.43-8.18-15.52-6.28-4.92,3.04-12.34,4.42-9.8,13.55Zm47.21-29.96c-.65,2.84-.9,6.18,3.24,8.53,3.28,1.87,5.77,5.68,9.17,6.64,7.5,2.11,17.92-7.11,18.11-15.17,.11-4.56-14.96-16.34-19.3-15.08-6.4,1.86-10.65,7.26-11.22,15.08Zm22.98,48.84q8.26,.12,11.61-7.52c.4-.91,.87-1.79,1.25-2.7,4.11-9.87,3.64-9.72-4.32-16.87-4.42-3.97-7.92-2.16-12.13-1.02-4.84,1.31-11.9,12.03-10.75,16.7,1.57,6.38,7.78,11.33,14.34,11.42Z" fill="currentColor"></path><path d="M258.06,31.71c.39,11.29-3.11,21.2-9.87,30.12-9.35,12.34-21.66,13.32-32.57,2.29-13.45-13.6-16.97-29.8-11.71-47.94,2.24-7.73,13.62-15.61,22.29-16.1,16.04-.91,26.2,5.95,30.84,21.29,.98,3.25,.71,6.88,1.02,10.34Z" fill="currentColor"></path></svg>