<svg class="svg-icon svg-icon--size-sm" role="img" xmlns="http://www.w3.org/2000/svg" viewBox="0 0 299.71 248.54"><path d="M131.95,90.67h95.29c-34.07,53.54-67.27,105.7-100.46,157.87-.35-.13-.71-.26-1.06-.39,6.2-31.51,12.4-63.01,18.74-95.2H50.77C83.92,101.35,116.48,50.67,149.04,0c.44,.12,.89,.25,1.33,.37-6.05,29.67-12.11,59.35-18.42,90.3Z" fill="currentColor"></path><path d="M299.71,182.96c-9.78,0-18.91,.16-28.04-.08-3.82-.1-5.24,.79-5.13,4.98,.32,11.66,.04,23.33,.15,35,.03,2.79-.45,4.37-3.74,4.36-29.33-.07-58.66-.04-87.99-.06-.29,0-.59-.26-1.68-.79,4.56-6.88,8.96-13.75,13.67-20.4,.61-.86,2.76-.85,4.2-.85,15.67-.04,31.34-.26,47,.16,5.03,.14,5.74-1.67,5.63-5.95-.25-10.49,.05-21-.15-31.5-.07-3.64,.96-5.06,4.78-4.94,7.66,.24,15.33,.02,23,.1,2.56,.03,3.85-.35,3.81-3.54-.22-19.33-.33-38.66-.13-57.99,.05-4.44-1.19-5.81-5.6-5.59-6.98,.35-14-.09-20.99,.17-3.65,.13-4.98-.89-4.89-4.73,.25-10.33-.17-20.67,.19-30.99,.17-4.9-.93-6.57-6.25-6.48-21.33,.34-42.66,.14-64,.13-1.6,0-3.21,0-5.55,0,1.44-7.27,2.59-13.89,4.24-20.38,.23-.89,3.02-1.57,4.63-1.58,21-.1,42-.06,63-.06,7.33,0,14.68,.2,22-.1,3.9-.16,4.85,1.35,4.81,4.93-.15,11.66-.06,23.33-.06,35,0,1.29,0,2.59,0,4.45,7.99,0,15.61,0,23.22,0q9.85,0,9.85,10.07v96.67Z" fill="currentColor"></path><path d="M0,32.07H96.56c-4.76,7.45-8.96,14.27-13.5,20.85-.66,.95-3,1.01-4.56,1.02-16.5,.07-33,.14-49.5-.04-4.01-.04-4.89,1.23-4.88,5.21,.13,47.33,.1,94.66-.12,141.98-.02,4.35,2.23,4.07,4.97,4.06,23.83-.03,47.66-.06,71.5-.09,1.61,0,3.23,0,6.04,0-1.46,7.3-2.68,13.88-4.21,20.39-.18,.78-2.06,1.66-3.16,1.67-32.66,.06-65.32,.02-97.97-.03-.29,0-.58-.27-1.16-.56V32.07Z" fill="currentColor"></path></svg>