<svg class="svg-icon svg-icon--size-sm" role="img" xmlns="http://www.w3.org/2000/svg" viewBox="0 0 399.23 342.35"><path d="M118.96,328.32C79.09,288.43,39.6,248.92,0,209.29c.49-.52,1.37-1.51,2.3-2.44,31.57-31.58,63.19-63.12,94.66-94.81,2.95-2.97,4.61-2.9,7.55-.08,14.76,14.13,14.84,14.05,14.84,34.66-.01,59.82-.03,119.65-.06,179.47,0,.62-.18,1.24-.33,2.22Z" fill="currentColor"></path><path d="M399.23,167.57c-3.71,3.5-6.99,6.73-10.42,9.81-12.39,11.12-24.8,22.22-37.29,33.23-.93,.82-2.64,1.49-3.79,1.25-12.42-2.58-24.79-5.4-37.21-8.01-1.27-.27-3.11-.09-4.05,.67-13.17,10.64-26.23,21.42-40,32.73,6.62,5.72,12.88,11.09,19.09,16.5,9.04,7.87,18.26,15.54,27.01,23.72,8.22,7.69,6.39,20.87-3.56,27.4-18.54,12.17-37.23,24.11-55.74,36.31-3.09,2.04-4.62,1.35-6.27-1.56-3.28-5.8-2.34-12.26,3.05-18.19,8.06-8.87,16.19-17.67,24.26-26.53,1.97-2.16,3.79-4.45,5.99-7.04-13.02-7.44-25.3-14.47-37.59-21.49-6.45-3.69-13.13-7.03-19.29-11.15-10.42-6.99-12.8-19.22-6.95-30.23,3.29-6.18,9.08-7.2,14.82-8.6,5.5-1.34,11.06-2.42,16.6-3.62-.08-.4-.16-.8-.24-1.19h-104.18c-.07-.41-.13-.82-.2-1.23,6-.99,11.98-2.05,17.99-2.96,24.2-3.67,48.34-8.04,72.66-10.61,12.12-1.28,14.72-11.46,22.8-17.62-8.18-6.02-15.38-11.6-22.94-16.63-1.4-.93-4.43-.07-6.44,.68-12.33,4.6-24.55,9.48-36.9,14.03-1.22,.45-3.64-.17-4.45-1.16-6.96-8.46-6.76-9.36,2.94-14.72,13.3-7.36,26.58-14.77,40.06-21.79,2.11-1.1,5.59-1.13,7.83-.19,15.52,6.49,30.91,13.31,46.24,20.22,1.78,.8,3.38,2.62,4.43,4.35,3.77,6.22,7.54,12.48,10.77,18.99,2.04,4.12,4.12,3.97,7.24,1.57,1.83-1.41,4.17-2.27,5.74-3.9,5.09-5.28,10.34-4.94,16.3-1.55,4.14,2.35,8.79,3.79,12.97,6.09,4.28,2.35,7.68,2.13,11.68-.96,10.62-8.21,21.68-15.85,32.33-24.04,3.15-2.42,5.12-2.09,7.56,.58,2.11,2.3,4.48,4.35,7.13,6.88Z" fill="currentColor"></path><path d="M106.22,104.19C141.14,69.27,175.22,35.18,210.39,0c4.8,5.25,10.05,10.81,14.98,16.65,.64,.75,.12,3.48-.78,4.38-18.74,18.92-37.64,37.69-56.44,56.55-13.28,13.32-26.57,26.63-39.62,40.17-3.28,3.4-5.25,3.28-8.35-.11-4.36-4.76-9.3-9.01-13.96-13.44Z" fill="currentColor"></path><path d="M207.84,234.91c-1.7,14.37,4.63,23.62,17.74,29.94-5.3,4.44-9.99,8.48-14.8,12.39-21.01,17.1-42.06,34.15-63.06,51.26-4.64,3.78-5.45,3.73-8.77-1.29-3.71-5.62-2.83-12.55,2.25-18.19,5.35-5.94,10.94-11.68,15.87-17.95,4.13-5.25,10.25-4.82,15.56-6.62,5.23-1.77,10.69-2.85,16.05-4.23-.05-.4-.1-.8-.15-1.21-16.86-1-33.72-2-50.58-3-.06-.38-.12-.76-.18-1.15,5.71-1.51,11.4-3.04,17.12-4.52,8.27-2.15,16.61-4.09,24.8-6.5,2.04-.6,3.86-2.47,5.4-4.12,7.66-8.21,15.19-16.54,22.77-24.83Z" fill="currentColor"></path><path d="M227.08,26.93c.14,2.96,.27,4.39,.27,5.82,.01,27.49-.05,54.97,.08,82.46,.02,3.25-.94,5.13-3.84,6.65-7.14,3.73-14.11,7.77-21.73,12.01-.22-1.8-.49-3-.49-4.2-.02-24.49-.04-48.97,.03-73.46,0-1.54,.23-3.54,1.19-4.53,7.7-8,15.6-15.81,24.49-24.73Z" fill="currentColor"></path><path d="M311.87,120.19c12.8,.24,21.93,11.4,18.4,23.96-1.32,4.69-3.13,9.4-5.61,13.58-6.17,10.43-16.84,11.62-25.25,2.89-6.37-6.62-9.23-14.8-8.34-23.99,.95-9.69,9.85-16.56,20.8-16.44Z" fill="currentColor"></path></svg>