<svg width="13" height="13"  class="svg-icon svg-icon--size-sm" role="img" xmlns="http://www.w3.org/2000/svg" viewBox="0 0 351.88 283.68"><path d="M114.53,283.68c-1.82-13.58,3.79-23.1,13.36-30.09,21.41-15.61,43.23-30.67,64.88-45.96,.5-.35,.97-.74,2.38-1.8-2.15-.2-3.35-.55-4.45-.37-15.03,2.44-29.99,5.36-45.08,7.31-9.76,1.26-19.03-2.03-26.3-8.41-6.91-6.06-12.59-13.52-18.81-20.36,.21-.57,.41-1.13,.62-1.7,6.73-1.26,13.46-2.52,20.18-3.78l-.12-1.14H54.45c-.07-.53-.14-1.06-.2-1.59,12.18-2.38,24.35-4.76,37.54-7.34-10.58-15.72-9.61-33.97-13.59-51.32-8.5,3.18-16.47,6.15-24.43,9.12-4.79,1.79-9.52,3.79-14.4,5.28-4.12,1.26-6.07,3.89-7.13,7.89-3.93,14.81-7.99,29.58-12.23,44.3-.32,1.13-2.35,1.81-3.67,2.58-.34,.2-.98-.04-1.46-.16-3.96-1.04-9.22-.95-11.48-3.51-1.95-2.21-.57-7.44-.49-11.33,.37-19.31,.75-38.63,1.3-57.94,.04-1.43,1.15-3.46,2.36-4.11,9.86-5.35,19.56-11.19,29.92-15.34,6.45-2.58,13.96-2.52,21-3.6,3.58-.55,7.17-1,10.78-2.68H.1c-.03-.58-.06-1.16-.1-1.75,4.41-.53,8.84-.95,13.24-1.62,14.55-2.22,29.03-5.1,43.65-6.59,8.42-.86,16.08-3.16,23.73-6.39,11.52-4.87,21.9-1.56,31.92,4.74,5.45,3.43,11.21,6.38,16.92,9.37,3.66,1.91,5.61,4.79,6.58,8.74,3.62,14.72,7.41,29.41,11.14,44.11,1.94,7.65,4.02,15.28,5.78,22.97,.8,3.51,2.21,4.69,6.1,4.55,14.65-.49,29.34-.03,43.97-.74,9.72-.47,18.2,1.33,25.95,7.45,18.53,14.65,15.84,46.1-5.25,56.76-31.97,16.16-64.09,32.03-96.15,48.02-4.09,2.04-8.2,4.04-13.03,6.42Z" fill="currentColor"></path><path d="M135.88,0c21.7,.55,36.2,18.41,30.18,37.87-4.96,16.03-14.72,27.9-31.57,32.85-7.7,2.27-18.09-1.98-22.88-10.11-9.96-16.93-9.33-33.75,1.44-50C118.34,2.63,126.54-.16,135.88,0Z" fill="currentColor"></path><path d="M145.67,88.97c4.36,.95,7.7,1.6,11,2.43,15.47,3.86,30.91,7.87,46.43,11.55,1.81,.43,4.32-.28,5.97-1.31,15.71-9.8,31.31-19.78,46.95-29.7,1.2-.76,2.45-1.43,4.38-2.55,1.34,6.98,2.67,13.21,3.59,19.5,.15,1.02-1.29,2.6-2.38,3.43-16.46,12.58-32.95,25.12-49.55,37.51-1.42,1.06-3.67,1.41-5.54,1.42-14.48,.11-28.97-.09-43.45,.15-4.34,.07-6.72-.6-7.82-5.54-2.68-12.01-6.15-23.85-9.59-36.88Z" fill="currentColor"></path><path d="M351.88,183.36c-11,14.88-22.91,25.64-42.19,25.13-16.62-.44-33.28,.51-49.93,.84-1.63,.03-3.27,0-5.51,0,4.65-15.68-.71-28.57-10.44-41.39,36.61,5.22,71.99,10.27,108.08,15.42Z" fill="currentColor"></path></svg>