<svg class="svg-icon svg-icon--size-sm" role="img" xmlns="http://www.w3.org/2000/svg" viewBox="0 0 344.32 360.56"><path d="M126.54,54.15c15.61-18.56,30.19-35.89,45.54-54.15,14.94,17.76,29.73,35.34,45.37,53.93h-30.88c-.18,1.37-.41,2.3-.41,3.24,0,18.01-.08,36.01,.1,54.02,.04,4.43-1.21,6.27-5.95,7.18-13.44,2.57-26.72,5.95-40.07,9.01-11.23,2.58-22.44,5.29-33.72,7.67-3.32,.7-4.69,1.79-4.56,5.49,.37,10.73,.17,10.79,10.81,12.76,19.67,3.63,39.34,7.24,59.04,10.74,15.62,2.77,31.27,5.37,46.92,8.03,15.63,2.66,31.26,5.29,46.89,7.94,23.78,4.03,47.55,8.13,71.35,12.07,7.21,1.19,7.25,.99,7.25,8.19,0,5.67-.21,11.35,.08,17,.17,3.4-.82,5.01-4.24,5.93-15.59,4.17-31.11,8.63-46.67,12.94-13.5,3.73-27.01,7.39-40.52,11.09-20.95,5.73-41.89,11.5-62.86,17.18-2.81,.76-4.41,2.04-3.85,5.18,.14,.81,.13,1.68,.02,2.49-1.22,8.94,.89,15.14,9.75,20.36,10.1,5.95,14.3,16.73,14.48,28.91,.23,15.37-6.6,26.55-19.51,33.9-13.71,7.8-27.38,6.92-40.62-1.94-23.39-15.64-21.81-51.88,3.9-65.15,3.03-1.56,4.29-3.18,4.2-6.81-.31-12.66-.26-25.34,.02-38.01,.04-1.72,1.9-4.58,3.38-4.93,23.73-5.6,47.55-10.87,71.33-16.24,3.01-.68,5.97-1.54,8.84-2.29v-15.23c-15.54-2.8-30.8-5.62-46.09-8.3-15.8-2.77-31.63-5.38-47.43-8.1-15.45-2.65-30.88-5.41-46.34-8.02-18.25-3.08-36.51-6.06-54.77-9.08-14.34-2.37-28.68-4.75-43.04-7.04-2.94-.47-4.34-1.66-4.24-4.87,.21-6.83,.4-13.69-.02-20.5-.24-3.91,1.34-5.16,4.69-6.06,17.65-4.74,35.25-9.63,52.87-14.49,21.12-5.83,42.22-11.71,63.34-17.5,10.8-2.96,21.63-5.79,32.46-8.62,3.4-.89,5.17-2.39,5.02-6.51-.38-10.27-.13-20.57-.13-31.41h-31.74Zm45.65,280.51c6.58,.04,12.83-6.05,12.88-12.54,.04-6.3-6.46-12.91-12.72-12.91-6.88,0-13.13,6.18-13.07,12.92,.07,6.49,6.25,12.49,12.91,12.53Z" fill="currentColor"></path><path d="M57.34,211.06c5,5.37,11.01,11.56,16.68,18.05,2.25,2.57,3.65,2.6,5.93,.2,4.82-5.07,10.18-9.65,14.73-14.94,3.18-3.69,5.19-3.56,8.1,.04,2.29,2.83,5.07,5.29,7.79,7.75,2.27,2.06,2.14,3.66-.04,5.77-6.21,6.01-12.25,12.2-18.61,18.58,6.15,6.15,12.03,12.2,18.12,18.04,2.6,2.49,3,4.44,.14,6.96-2.62,2.31-5.21,4.73-7.36,7.47-3.19,4.06-5.51,3.1-8.54-.29-4.54-5.09-9.63-9.69-14.3-14.68-2.23-2.37-3.84-2.44-6.13-.05-5.98,6.23-12.16,12.26-18.67,18.79-4.41-4.44-8.73-8.54-12.63-13.01-.58-.66,.44-3.52,1.49-4.66,5.74-6.24,11.71-12.27,18.01-18.79-6.88-6.5-14.07-13.29-21.43-20.25,5.75-5.15,10.53-9.43,16.73-14.98Z" fill="currentColor"></path><path d="M249.39,73.3c7.42,8.42,13.88,15.75,20.67,23.46,8.51-8.02,15.7-14.8,23.61-22.25,4.42,4.99,8.7,9.82,13.16,14.86-6.7,6.55-13.89,13.58-21.89,21.39,7.92,7.77,15.02,14.72,21.52,21.1-4.34,4.7-8.69,9.42-13.47,14.59-6.9-7.32-13.71-14.55-20.77-22.04-7.76,8.02-14.67,15.15-22.15,22.88-4.92-4.88-9.25-8.92-13.17-13.33-.64-.72-.01-3.55,.93-4.52,4.86-5,9.9-9.85,15.11-14.47,3.19-2.83,4.22-4.93,.4-8.26-5.01-4.37-9.24-9.64-14.28-13.95-3.8-3.24-3.17-5.23,.14-8.21,3.32-2.99,6.06-6.62,10.18-11.22Z" fill="currentColor"></path></svg>