<svg class="svg-icon svg-icon--size-sm" role="img" xmlns="http://www.w3.org/2000/svg" viewBox="0 0 324.26 283.76"><path d="M104.93,114.33c1.72,23.23,3.36,45.35,5.08,68.61-20.94-10.08-41.05-19.76-62.12-29.91,6.52-4.48,12.17-8.36,18.2-12.5C44.15,104.57,22.28,68.73,0,32.2H111.53c.08,.3,.15,.6,.23,.91-20.82,8.56-41.64,17.13-63.03,25.92,2.56,4.43,4.83,8.57,7.29,12.59,10.09,16.49,20.36,32.87,30.28,49.45,2.23,3.73,3.97,3.5,6.96,1.21,3.47-2.67,7.24-4.96,11.67-7.95Z" fill="currentColor"></path><path d="M191.28,68.83c-20.07-12.66-39-24.6-58.69-37.02,19.94-10.82,38.82-21.06,58.64-31.81,0,6.22,.21,11.19-.07,16.14-.19,3.35,.87,4.32,4.21,4.31,37.5-.11,75.01-.09,112.51-.1,4.93,0,9.86,0,16.39,0-22.99,31.05-45.18,61.02-67.38,90.98-.34-.19-.68-.38-1.02-.56,6.38-20.68,12.75-41.35,19.26-62.43-1.87-.11-3.3-.26-4.74-.26-24.67-.01-49.34,.08-74.01-.1-4.11-.03-5.62,.96-5.2,5.29,.46,4.7,.1,9.49,.1,15.56Z" fill="currentColor"></path><path d="M118.6,194.91c5.79,4.26,11.58,8.52,17.37,12.78,9.48,6.99,18.96,13.99,28.44,20.97,1.58,1.17,3.1,2.85,4.84,0,11.87-19.47,23.79-38.9,36.08-58.96-6.48-3.55-12.5-6.84-19.33-10.58,20.43-10.72,40.24-21.11,60.13-31.55v68.63c-6.48-4.23-11.81-7.71-17.72-11.57-20.11,32.88-40.1,65.56-60.63,99.12-17.18-30.34-33.55-59.26-49.92-88.18,.25-.22,.49-.44,.74-.66Z" fill="currentColor"></path></svg>