<svg  width="13" height="13" class="svg-icon svg-icon--size-sm" role="img" xmlns="http://www.w3.org/2000/svg" viewBox="0 0 321.53 220.5"><path d="M162.61,186.41c-2.5,0-5.03-.23-7.49,.05-4.16,.48-5.58-1.31-5.69-5.32-.57-20.38-7.99-38.45-18.36-55.72-5.57-9.29-11.48-18.92-14.29-29.2-6.46-23.65-.63-45.44,14.27-64.8,12.88-16.74,29.79-27.36,50.56-30.66,15.4-2.45,29.98,1.03,42.62,10.82,2,1.55,4.36,3.08,2.54,6.06-1.56,2.55-3.74,3.22-6.84,2.2-10.64-3.49-21.34-3.08-31.46,1.63-17.45,8.12-30.05,31.5-12.81,52.68,2.94,3.61,5.78,7.33,8.97,10.7,11.6,12.27,13.75,26.25,7.8,41.73-3.72,9.69-8.22,19.12-11.24,29.02-2.49,8.13-3.65,16.73-4.73,25.2-.52,4.04-1.33,6.23-5.87,5.68-2.63-.32-5.33-.06-7.99-.06Z" fill="currentColor"></path><path d="M117.31,186.4c-5.5,0-11.03,.31-16.49-.16-2.01-.17-4.61-1.7-5.68-3.41-7.28-11.54-14.42-22.97-26.31-30.7-17.23-11.2-35.16-4.22-44.86,8.74-.5,.66-.87,1.5-1.52,1.96-2.07,1.5-4.24,2.87-6.37,4.29-1.25-2.33-3.56-4.65-3.58-6.99-.19-18.53,6.04-34.46,20.59-46.47,22.39-18.47,49.43-17.03,73.29,1.41,17.02,13.15,25.89,31.42,29.98,52.18,.99,5.03,1.38,10.18,2.32,15.23,.56,3.01-.59,3.96-3.37,3.93-6-.05-12-.01-18.01-.01Z" fill="currentColor"></path><path d="M255.91,100.51c26.23-.29,50.54,18.59,55.47,40.86,1.45,6.56,1.99,13.38,2.27,20.1,.08,1.87-1.94,4.72-3.68,5.44-1.17,.48-4.14-1.61-5.3-3.26-5.51-7.86-12.24-13.88-21.79-16.25-11.91-2.97-21.74,1.34-30.68,8.73-8.61,7.11-14.56,16.32-19.94,25.9-1.84,3.28-3.98,4.6-7.88,4.49-10.83-.31-21.67-.19-32.51-.06-3.55,.04-4.42-.97-3.97-4.71,2.07-17.1,5.93-33.55,15.56-48.16,13.23-20.09,31.65-31.49,52.45-33.07Z" fill="currentColor"></path><path d="M99.83,200.28h127.02c-2.25,5.12-4.89,9.54-6.11,14.33-1.4,5.53-4.68,5.91-9.38,5.88-32.62-.16-65.24-.08-97.86-.08h-5.59c-2.63-6.56-5.18-12.92-8.08-20.13Z" fill="currentColor"></path><path d="M0,193.6c2.54-4.27,4.4-9.21,7.76-12.7,9.78-10.13,5.95-9.84,15.92-.23,2.22,2.14,4.15,4.78,5.56,7.53,2.82,5.51,1.42,11.98-3.22,16.87-4.56,4.81-10.19,4.9-15.98,3.15-4.48-1.35-8.81-8.51-8.82-13.9l-1.21-.72Z" fill="currentColor"></path><path d="M307.28,208.41c-7.09,.29-10.97-3.07-13.68-8.34-3.01-5.86-1.92-11.47,2.02-16.12,3.18-3.74,7.34-6.71,11.31-9.69,.83-.62,3.37-.34,4.04,.45,3.09,3.67,6.17,7.43,8.55,11.57,5.72,9.96-1.6,22.16-12.25,22.13Z" fill="currentColor"></path><path d="M255.41,41.24c.41,6.83-3.14,11.34-8.91,14.09-5.05,2.41-10.06,1.48-14.33-2.09-4.81-4.01-6.69-9.1-5.05-15.38,.95-3.64,1.66-7.35,2.24-11.07,.42-2.65,1.25-3.88,4.25-2.99,3.76,1.12,7.71,1.62,11.47,2.75,4.73,1.43,11.43,7.68,10.34,14.68Z" fill="currentColor"></path></svg>