<svg width="13" height="13"  class="svg-icon svg-icon--size-sm" role="img" xmlns="http://www.w3.org/2000/svg" viewBox="0 0 359.73 385.67"><path d="M171.74,0c9.28,3.39,19.8,4.49,28.23,11.23,7.09,5.67,12.7,12.87,14.22,21.58,1.45,8.3,1.82,17.41-.01,25.56-8.65,38.51-28.46,71-56.14,98.8-9.5,9.54-19.23,18.91-29.4,27.72-4.51,3.91-10.35,6.33-15.73,9.15-.94,.49-3.03,.03-3.89-.76-14.31-13.17-28.46-26.52-42.79-39.67-2.43-2.23-2.87-3.91-.95-6.71,10.19-14.85,14.77-31.39,15.69-49.35,.71-13.79,5.85-26.24,14.13-37.51,12.35-16.82,25.39-32.99,42.24-45.5,10.02-7.44,21.19-12.8,34.42-14.52Z" fill="currentColor"></path><path d="M147.07,385.67c-4.74-9.87-9.98-19.54-14.12-29.66-9.68-23.66-12.55-48.7-9.85-73.75,4.95-45.88,25.93-83.55,62.37-112.28,17.2-13.56,36.41-23.41,57.54-28.77,12.09-3.07,24.7-4.24,37.14-5.68,6.6-.76,6.67-.2,6.67-7.08,0-8.94,0-17.88,0-28.07,5.65,4.36,10.49,7.94,15.17,11.72,15.1,12.2,30.14,24.47,45.21,36.72,3.48,2.83,6.86,5.81,10.5,8.42,2.68,1.93,2.68,3.17,.09,5.23-13.38,10.67-26.65,21.47-39.94,32.25-8.9,7.22-17.77,14.48-26.68,21.69-1.07,.86-2.28,1.55-4.35,2.94,0-10.58-.16-20.01,.07-29.43,.11-4.3-.64-5.45-5.56-4.96-13.22,1.32-26.23,3.13-38.91,7.33-15.18,5.03-29.1,12.37-41.78,21.97-16.9,12.8-30.22,28.75-40.55,47.26-8.46,15.16-14.35,31.36-16.91,48.35-2.21,14.69-4.14,29.7-.69,44.65,2.22,9.61,4.19,19.29,6.25,28.94,.1,.45-.1,.97-.16,1.46-.5,.25-1,.49-1.5,.74Z" fill="currentColor"></path><path d="M0,225.95c1.14-4.95,2.4-9.88,3.38-14.87,.45-2.29,.21-4.71,.59-7.02,.22-1.37,.89-2.74,1.63-3.94,8.94-14.4,20.94-25.51,35.89-33.49,2.78-1.49,4.67-1.37,6.95,1,13.5,14.01,27.22,27.81,40.63,41.9,1.15,1.21,1.58,4.75,.67,6.01-11.26,15.62-22.44,31.42-40.93,39.59-9.32,4.12-18.81,6.29-28.79,2.47-13.02-4.98-19.26-15.21-20.03-31.64Z" fill="currentColor"></path></svg>