<svg class="svg-icon svg-icon--size-sm" role="img" xmlns="http://www.w3.org/2000/svg" viewBox="0 0 359.39 301.46"><path d="M126.36,0c20.68,12,40.31,23.38,61.15,35.47-20.58,11.93-40.4,23.42-61.09,35.41v-23.32c-6.12,1.11-11.66,1.66-16.93,3.15-30.01,8.51-53.27,26.05-69.3,52.9-12.15,20.35-17.88,42.69-15.59,66.07,4.69,47.89,29.82,81.49,74.5,99.82,11.36,4.66,23.48,6.73,35.9,6.69,26.49-.09,52.99-.03,79.48-.03h6.54c-5.68,5.83-10.93,10.39-15.14,15.77-6.02,7.68-13.28,10.03-22.9,9.46-13.95-.83-27.98-.28-41.98-.2-34.69,.19-65.43-11.03-91.93-33.11-17.33-14.44-29.95-32.75-38.59-53.6C1.96,193.92-1.42,172.28,.54,150.26c2.93-32.88,14.98-61.98,38.5-85.95,18.48-18.84,40.49-31.18,65.88-37.66,5.25-1.34,10.72-2.09,16.13-2.49,4.06-.3,5.57-1.78,5.38-5.85-.27-5.64-.07-11.31-.07-18.31Z" fill="currentColor"></path><path d="M292.04,203.52c-1,1.63-1.35,2.54-1.98,3.18-14.66,14.8-29.28,29.64-44.12,44.25-1.76,1.73-4.78,3.06-7.23,3.07-34.83,.1-69.67,.39-104.49-.27-37.98-.72-71-22.78-83.92-59.08-11.77-33.08-6.92-63.63,15.22-91.03,4.33-5.36,9.85-9.76,14.83-14.6,.35,.23,.7,.45,1.05,.68-.46,1.26-.78,2.6-1.4,3.78-6.43,12.17-9.16,25.21-8.47,38.85,1.7,33.42,26.01,62.26,58.81,69.43,6.9,1.51,14.21,1.5,21.33,1.53,44.17,.18,88.33,.17,132.5,.22,2.27,0,4.55,0,7.86,0Z" fill="currentColor"></path><path d="M111.91,83.2c.82,7.73,1.07,15.43,2.55,22.89,2.82,14.23,17.88,26.95,32.46,27.99,7.11,.51,14.25,.91,21.38,.91,62.97,.04,125.93-.02,188.9-.04,.47,0,.93,.19,2.19,.47-1.16,1.55-1.95,2.91-3.02,3.99-14.41,14.56-28.81,29.13-43.35,43.56-1.23,1.22-3.41,2.11-5.15,2.11-54.97,.1-109.95,.19-164.92,0-22.06-.08-44.46-17.41-50.5-39.1-6.53-23.48-1.76-44.18,16.74-60.92,1.03-.93,2.31-1.58,2.72-1.85Z" fill="currentColor"></path></svg>